<svg width="236" height="60" viewBox="0 0 236 60" fill="none" xmlns="http://www.w3.org/2000/svg">
<path d="M174.27 18.0632C173.863 18.466 174.474 20.0464 174.984 20.0464C175.545 20.0464 175.545 18.7759 174.984 18.2181C174.729 18.0012 174.423 17.9393 174.27 18.0632Z" fill="white"/>
<path d="M176.137 18.3098C176.137 18.4647 176.392 18.6196 176.647 18.6196C176.953 18.6196 177.157 18.4647 177.157 18.3098C177.157 18.1238 176.953 17.9999 176.647 17.9999C176.392 17.9999 176.137 18.1238 176.137 18.3098Z" fill="white"/>
<path d="M175.532 16.3464C174.716 16.9352 175.277 17.6169 176.195 17.1831C176.552 16.9972 177.01 16.9662 177.265 17.0901C177.469 17.2141 177.571 17.0282 177.469 16.7183C177.214 15.9436 176.297 15.7577 175.532 16.3464Z" fill="white"/>
<path d="M123.407 2.27053C122.183 3.44804 121.011 4.59458 120.858 4.87346C120.501 5.36926 117.085 5.89604 116.219 5.58617C116.015 5.49321 116.372 4.90445 117.085 4.28471C117.799 3.66497 118.36 2.85929 118.36 2.54942C118.36 2.05363 117.799 2.30153 115.811 3.572C114.435 4.47062 113.262 5.33827 113.262 5.49321C113.262 5.61715 112.293 5.89604 111.121 6.08197C103.015 7.35243 95.419 9.30464 95.419 10.1413C95.419 10.947 96.3876 11.1639 97.3562 10.6371C98.8856 9.83143 108.164 7.63133 110.05 7.63133C110.815 7.63133 110.917 7.5074 107.654 10.6991C106.533 11.7526 105.615 12.7752 105.615 12.9611C105.615 13.1161 105.207 13.6429 104.646 14.0767C104.137 14.5415 102.964 15.8739 101.995 17.0824C100.109 19.5304 98.2229 21.2967 97.1523 21.6685C96.6935 21.8235 93.5837 22.5052 90.168 23.1559C83.7956 24.4264 79.0034 25.7589 75.078 27.3392C73.8545 27.835 72.478 28.3928 72.0192 28.5477C69.0114 29.6942 66.9212 30.6549 65.3918 31.4605C64.4741 31.9873 63.5055 32.4211 63.3016 32.4211C62.6389 32.4211 57.4899 35.7987 56.5722 36.8213C55.0938 38.4636 55.5017 40.7877 57.3879 41.8722C58.1016 42.2441 59.8859 42.7399 62.4349 43.2667C66.4114 44.0413 76.6584 43.3906 81.0936 42.0891C82.3681 41.7173 83.6936 41.4074 84.0505 41.4074C84.4073 41.4074 85.172 41.2525 85.7328 41.0356C87.0073 40.5398 87.4151 40.8497 87.0073 41.9962C86.6504 43.0188 85.9877 43.1427 79.6152 43.4216C75.3329 43.6075 73.4466 43.7934 71.1015 44.1653C70.031 44.3512 68.5016 44.5062 67.6349 44.5062C65.8506 44.5062 56.5722 45.4978 48.7723 46.5203C45.7135 46.9541 42.1449 47.357 40.8704 47.4499C39.5959 47.5739 36.9959 47.9148 35.0077 48.2246C21.702 50.3937 17.1374 49.5 12.6374 49C11.8217 48.6591 6.53014 49.2472 8.1615 48.2246C9.84383 47.1711 11.5276 45.7146 14.6374 44.3512L18.0373 42.1324C18.0373 42.1324 19.051 41.5314 20.3255 40.9426C21.6 40.3539 23.2823 39.8581 23.2823 39.8581L24.8627 39.2073C24.8627 39.2073 26.9446 38.4423 27.9132 38.1324C28.1171 37.9465 35.0077 36.1944 35.0077 36.1944C35.8234 36.1944 45.6178 31.5578 45.6178 31.2169C45.6178 31.062 45.8727 31.031 46.1276 31.124C46.4334 31.2169 46.6374 31.1859 46.6374 31C46.6374 30.8141 46.9432 30.7521 47.3001 30.8451C47.657 30.907 48.8629 30.5888 50.1374 30C52.3805 28.9774 64.1173 24.0546 64.6271 24.0546C64.882 24.0546 67.8898 22.8151 68.3996 22.5052C68.5525 22.4122 69.6741 22.0094 70.9486 21.6066C72.2231 21.2037 73.9564 20.553 74.8741 20.1502C75.7407 19.7473 76.6074 19.4065 76.7093 19.4065C77.0152 19.4065 85.9877 16.3077 88.5877 15.3162C89.7092 14.8823 91.6974 13.9527 92.9719 13.302C95.1131 12.1555 95.266 12.0315 94.6543 11.3188C94.2464 10.916 93.7876 10.6061 93.5327 10.6061C93.3288 10.6371 92.5641 10.5131 91.9014 10.3582C90.5249 10.0483 84.1524 9.6455 80.6348 9.67649C76.3015 9.67649 60.5997 10.3892 58.7134 10.6371C57.9997 10.73 56.6232 10.854 55.6546 10.916C48.6194 11.3188 32.9175 13.1161 27.5137 14.1077C25.7294 14.4485 23.3843 14.8204 22.2627 14.9133C18.6941 15.2852 8.60011 17.4853 7.52953 18.136C6.71385 18.6318 6.66287 18.8487 7.17267 19.2206C7.83541 19.6854 8.1615 24.566 8.1615 24.566L16.4756 19.2206L23.2823 17.6944C23.2823 17.6944 31.8979 16.2254 32.5097 16.1944L39.9528 14.9133L52.6029 13.6944C52.6029 13.6944 64.3963 12.659 73.8786 12.566C79.0276 12.535 80.6446 12.1322 81.6132 12.566C82.3269 12.8759 73.2614 17.566 73.2614 17.566C70.7634 18.3097 66.9722 20.5756 66.9722 20.5756C66.6153 20.6066 60.9055 22.8067 59.8859 23.3644C59.5291 23.5194 58.9683 23.6743 58.5605 23.6743C58.1526 23.6743 57.4899 23.9222 57.0311 24.2321C56.5213 24.542 54.9919 25.1307 53.6154 25.5335C52.188 25.9364 51.0664 26.3702 51.0664 26.5251C51.0664 26.5251 49.3841 27.0519 48.8233 27.3618C48.2115 27.6717 46.937 28.2294 45.9174 28.5703C44.9488 28.9112 42.2469 29.8408 39.9528 30.6774C37.6077 31.5141 35.2626 32.3507 34.7018 32.5367C34.1411 32.7226 33.1724 33.1874 32.5097 33.5592C31.8979 33.9001 30.8923 34.5 30.6374 34.5C30.3825 34.5 29.1765 35.1633 27.1374 36C25.0982 36.8676 20.8923 38.5 20.6374 38.5C20.6374 38.5 20.0138 38.9732 18.6374 39.5C17.2099 39.9958 15.6374 40.5 15.6374 40.5C15.6374 40.5 14.5648 41.4422 13.1374 42C11.6589 42.5888 10.9942 42.8141 10.6374 43C10.3315 43.1549 9.40205 43.6591 8.63735 44C7.92363 44.3409 6.40205 45.0972 5.63735 45.5C4.87265 45.9028 3.67353 46.4112 2.501 47C-0.863679 48.6733 -0.729216 50.5797 2.2786 51.5403C4.98053 52.4389 15.4824 52.2839 23.7921 51.2304C32.2038 50.1768 41.1253 49.0303 45.7135 48.3796C47.7017 48.1007 50.7605 47.7598 52.5958 47.5739C54.4311 47.419 58.1016 47.0161 60.7526 46.7062C63.4035 46.3654 66.8192 46.0245 68.3486 45.9316C69.878 45.8076 73.2427 45.5287 75.7407 45.3118C78.2897 45.0639 81.5524 44.785 82.9799 44.7231L85.5799 44.5371L85.5289 48.7824C85.5289 51.6022 85.7328 53.3375 86.1406 53.9573C87.2112 55.4137 87.772 54.3911 87.772 51.0135C87.772 46.9232 88.2818 44.847 89.2504 44.5371C90.5759 44.1033 93.1249 44.0104 93.0229 44.4132C92.6151 45.7456 91.8504 50.7966 91.6465 53.6474C91.4425 56.5292 91.5445 57.2419 92.3092 58.2645C92.87 58.9462 93.6347 59.535 94.1445 59.566C94.8582 59.6279 94.9092 59.473 94.5523 58.3575C94.0425 56.7151 94.2464 48.5035 94.8582 48.1317C95.0621 48.0077 97.2033 48.0077 99.5484 48.1936C105.666 48.5965 110.356 48.6275 112.803 48.2246C113.976 48.0387 117.34 47.7598 120.348 47.6049C123.305 47.4499 126.67 47.264 127.791 47.1711C131.207 46.8612 137.834 45.7147 139.721 45.0949C140.74 44.785 141.862 44.5062 142.219 44.5062C142.626 44.5062 144.819 43.6075 147.164 42.492C154.454 39.0524 158.43 34.8071 157.971 31.0267C157.767 29.3844 157.869 29.1055 158.838 28.6717C160.214 28.0519 163.018 27.4632 164.548 27.4632C165.567 27.4632 165.669 27.5561 165.312 28.1449C164.701 29.1984 163.834 33.5677 163.834 35.5199C163.885 36.5114 163.996 37.566 163.996 37.566C163.996 37.566 163.936 46.3654 163.426 48.9063C163.018 50.9515 163.435 61.5182 163.996 59.566C164.2 58.9463 166.21 49.8758 166.465 49.566C166.72 49.2561 167.444 46.297 167.699 44.066C167.954 41.7419 168.628 40.6899 168.934 40.566C169.8 40.2561 177.242 40.3223 181.32 41.066C183.308 41.4378 185.921 41.8181 187.451 42.066C191.988 42.7167 197.829 44.2336 202.265 45.566C203.794 45.9998 209.983 48.566 210.289 48.566C211.053 48.566 216.907 51.3543 220.782 53.0586C222.566 53.8333 223.772 53.8801 224.485 54.066C224.485 54.066 228.063 55.504 229.134 55.566L235.306 56.566L227.967 52.253C226.998 51.7262 225.622 51.0445 224.908 50.7656C224.194 50.4867 221.492 49.3092 218.841 48.1317C211.449 44.909 198.449 41.1905 189.477 39.7341C187.234 39.3933 185.195 38.9904 184.889 38.8975C184.634 38.7735 183.563 38.5876 182.595 38.4636C181.014 38.2467 180.912 38.1848 181.881 37.9678C182.493 37.8439 183.971 37.689 185.195 37.596C190.751 37.2861 202.681 34.0634 206.096 32.0183C207.983 30.8718 208.34 30.4069 208.136 29.3224C207.983 28.7336 202.593 26.566 202.593 26.566C199.789 25.6674 190.955 25.6349 176.732 25.511L169.595 25.449L169.748 24.5813C169.952 23.6208 169.085 23.4348 168.575 24.3335C168.167 25.1701 166.383 25.7899 163.783 26.0687C162.56 26.1927 160.367 26.6265 158.838 27.0293L156.136 27.742L154.556 26.5335C153.689 25.8828 152.16 25.0152 151.089 24.6433C150.069 24.2405 149.101 23.8377 148.948 23.6827C148.132 23.001 141.556 21.5756 137.732 21.2657C135.336 21.0488 132.481 20.8009 131.36 20.677L129.321 20.46L132.889 19.2515C142.117 16.1838 154.046 9.92437 154.046 8.22009C154.046 7.32146 150.63 6.17492 147.164 5.92703C145.481 5.80308 139.466 5.71012 133.807 5.7411C122.234 5.77209 122.183 5.77208 124.783 3.69595C126.16 2.6114 127.078 0.194389 126.109 0.194389C125.854 0.194389 124.63 1.12401 123.407 2.27053ZM148.693 7.16652C150.426 7.4454 151.497 7.87923 151.497 8.28206C151.497 8.59193 145.94 12.3414 145.124 12.5893C143.697 13.0231 140.281 14.5725 140.281 14.8204C140.281 14.9443 139.67 15.2542 138.905 15.4711C138.089 15.657 137.375 15.9049 137.223 15.9979C134.877 17.4853 123.611 20.8009 119.787 21.1418C118.564 21.2347 115.913 21.6066 113.874 21.9474C111.325 22.4122 109.999 22.5052 109.642 22.2883C109.286 22.0714 109.795 21.1108 111.223 19.2206C113.415 16.3388 116.729 12.3414 117.34 11.8146C117.544 11.6287 118.003 11.0089 118.36 10.4202C119.787 8.25109 121.368 7.16652 123.356 7.01158C126.364 6.76369 147.011 6.88764 148.693 7.16652ZM118.87 7.25948C118.87 7.38343 118.564 7.6933 118.258 7.87923C117.901 8.09614 116.933 9.08773 116.066 10.0793C113.16 13.5499 107.807 20.1812 107.501 20.7079C107.246 21.1418 106.584 21.2657 104.34 21.2657C102.607 21.2657 101.537 21.1418 101.537 20.9249C101.537 20.7079 102.76 19.1586 104.289 17.4233C110.152 10.6681 113.007 7.75527 114.18 7.32145C115.199 6.9806 118.87 6.91862 118.87 7.25948ZM138.65 22.8151C140.944 23.1559 144.258 23.8996 145.991 24.4884C149.662 25.7279 150.954 28.1099 151.361 29.1944L151.979 34.1944C151.979 34.1944 150.502 37.3704 146.424 39.6944C140.306 43.1959 136.347 44.4197 125.437 45.1944C123.041 45.3493 117.335 45.9155 114.327 46.1944C110.402 46.5353 107.499 46.8493 103.217 46.6944C97.1501 46.5085 96.7165 46.5617 96.7165 46.066C96.7165 45.911 96.4386 45.3874 96.4386 45.3874C96.4386 45.1085 96.7165 44.566 96.7165 44.566C97.3338 44.066 96.4896 43.9174 99.6503 43.7315C101.639 43.5765 107.552 43.4526 112.752 43.4216C124.07 43.2977 123.305 43.3596 122.54 42.8948C121.827 42.461 117.442 42.0272 117.238 42.368C117.136 42.523 116.27 42.523 115.301 42.368C114.333 42.2441 109.693 42.1511 105.003 42.1821C100.262 42.2131 96.4386 42.1511 96.4386 42.0582C96.5915 40.2609 98.5683 38.6944 98.5683 38.6944L101.25 35.3649C101.25 35.3649 101.546 34.4679 102.889 32.6944C103.909 31.331 103.678 31.4149 105.003 29.9149C107.705 28.4149 106.767 28.2125 109.061 27.0659C110.489 26.3223 109.679 25.5659 111.53 25.0659C113.7 23.8067 112.395 24.3954 116.015 23.6207C123.815 21.8855 130.442 21.6686 138.65 22.8151ZM102.046 22.5362C102.046 22.5362 102.607 22.7841 103.576 22.6601C106.074 22.3193 105.972 23.125 103.27 26.4406C100.619 29.6013 100.925 29.4464 96.0307 30.376L94.9092 30.5929L96.2347 28.3618C98.1719 25.1082 99.4464 23.3419 100.364 22.7221C101.282 22.1334 102.046 22.5362 102.046 22.5362ZM96.4386 23.8067C96.4386 24.0236 95.7249 25.2631 94.8582 26.5335C93.1759 29.0125 92.5131 30.2211 91.0347 33.1958C90.5759 34.2184 88.9955 37.0072 88.9955 37.0072C88.6374 38 87.0583 39.92 86.0897 39.7961C85.3759 39.7341 83.6426 40.044 80.8897 40.7877C76.7603 41.9032 67.4819 42.399 63.3016 41.7173C60.8546 41.3145 58.2036 40.013 58.2036 39.2073C58.2036 38.1848 60.1918 36.1706 62.384 34.9621C63.5565 34.3423 64.729 33.6606 65.0349 33.5057C65.3408 33.3198 66.5133 32.762 67.6349 32.2662C68.7565 31.7704 69.929 31.2126 70.1839 31.0577C70.4898 30.8718 71.1015 30.5619 71.5094 30.407C71.9682 30.221 73.6505 29.5703 75.2309 28.9506C79.5132 27.2153 85.9367 25.294 90.8308 24.3335C95.7758 23.3419 96.4386 23.2799 96.4386 23.8067ZM189.013 27.566C189.982 27.6899 191.957 28.004 193.334 28.066C196.138 28.2519 196.866 27.5124 200.741 28.566C202.678 29.0928 198.272 33.066 198.272 33.066C197.037 33.566 189.031 35.7678 187.451 35.7678C186.941 35.7678 184.075 36.066 184.075 36.066C183.464 36.097 181.182 36.442 179.755 36.566C176.186 36.9068 169.647 35.7677 168.934 35.5199C168.526 35.3339 167.546 35.6689 167.699 33.066C167.954 28.8827 169.793 28.2829 171.73 28.066C173.872 27.8181 187.178 27.2871 189.013 27.566ZM99.2425 31.7084C99.0386 32.0183 98.6307 32.669 98.3248 33.1958C98.019 33.6916 97.4582 34.7142 97.0503 35.4579C96.3366 36.7283 94.2974 37.9678 92.2582 38.4017C90.8818 38.7115 90.7288 38.1847 91.7994 36.3875C92.3092 35.4889 92.921 34.3423 93.1249 33.8465C93.4308 32.9169 94.5013 32.1113 95.5719 31.9873C95.8778 31.9253 96.7445 31.7394 97.4582 31.5535C99.2935 31.0887 99.6503 31.1197 99.2425 31.7084ZM94.8582 39.6102C94.8582 40.013 94.5523 40.8187 94.1955 41.4074C93.6347 42.3061 93.2268 42.523 91.6465 42.6779C90.6269 42.7709 89.6582 42.7399 89.5053 42.6159C89.0465 42.1201 90.5759 39.8581 91.3916 39.8581C91.8504 39.8581 92.5131 39.6412 92.87 39.3933C93.8386 38.7115 94.9092 38.8355 94.8582 39.6102Z" fill="white"/>
<path d="M165.298 7.09846C159.544 8.17085 156.462 9.5021 151.427 13.0891C147.112 16.1583 145.725 17.8224 146.239 19.3015C147.164 21.964 152.969 23.9239 160.161 23.9978C164.527 24.0348 169.562 23.5911 169.973 23.1473C170.127 22.9624 170.743 22.8145 171.36 22.8145C172.695 22.7775 174.442 21.927 173.928 21.5572C173.723 21.4093 173.928 21.4093 174.39 21.5202C174.853 21.6682 175.315 21.5202 175.521 21.1135C176.086 20.0411 175.418 20.0411 172.592 21.0765C169.356 22.2598 163.808 22.9994 160.212 22.6666C158.774 22.5557 156 22.0749 154.047 21.6312C151.325 21.0025 150.297 20.5218 149.578 19.7083C148.756 18.7099 148.756 18.525 149.475 17.5265C149.886 16.9349 151.684 15.3817 153.38 14.0875C157.849 10.7964 166.222 7.80106 167.301 9.09533C167.712 9.53907 170.692 9.83491 171 9.42814C171.514 8.7995 173.312 9.16928 174.904 10.2047C175.829 10.7964 176.394 11.425 176.188 11.6099C175.932 11.7578 175.521 11.6099 175.264 11.2401C174.956 10.9073 174.39 10.6115 173.928 10.6115C173.209 10.6115 173.158 10.6854 173.877 11.2401C175.264 12.4234 175.367 13.163 174.185 13.7177C172.901 14.3833 173.26 15.6406 174.699 15.2338C176.651 14.6422 177.524 14.8271 178.089 16.0843C178.397 16.75 178.86 17.1937 179.014 17.0458C179.219 16.8979 179.168 16.4911 178.86 16.1213C178.603 15.7146 178.5 15.4187 178.706 15.4187C178.86 15.4187 178.808 15.1969 178.552 14.938C177.781 14.2724 177.421 12.8672 177.935 12.6453C178.706 12.2755 178.038 10.2417 176.805 9.28022C175.11 7.98596 167.918 6.61774 165.298 7.09846Z" fill="white"/>
</svg>
