<svg width="1061" height="344" viewBox="0 0 1061 344" fill="none" xmlns="http://www.w3.org/2000/svg">
<g clip-path="url(#clip0_1622_19107)">
<rect width="326.667" height="1056" transform="translate(5.0791 343.045) rotate(-90.8908)" fill="none"/>
<mask id="path-1-inside-1_1622_19107" fill="white">
<path d="M155.385 301.503C159.134 302.511 160.496 304.357 160.556 308.223C160.583 309.957 161.814 311.938 163.295 312.848C164.776 313.758 165.999 315.206 166.011 316.006C166.026 316.939 167.109 317.989 168.315 318.371C170.865 319.398 194.864 319.158 196.451 318.333C197.374 317.652 219.878 315.569 232.668 314.836C236.665 314.641 240.261 314.318 240.659 314.179C241.054 313.906 245.585 313.702 250.651 313.623C260.783 313.466 280.331 309.961 297.192 305.165C303.035 303.608 309.01 301.915 310.472 301.625C311.932 301.202 314.855 300.49 317.113 299.922C319.238 299.355 321.498 298.92 322.031 298.912C322.562 298.77 323.75 297.952 324.535 297.006C325.456 296.192 327.443 295.361 328.91 295.338C331.309 295.3 334.755 293.913 349.047 286.89C352.093 285.509 355.007 284.264 355.674 284.254C356.207 284.245 362.694 281.211 370.104 277.495C377.38 273.782 386.65 269.637 390.631 268.375C405.359 263.612 431.005 249.212 440.6 240.261C444.148 236.872 448.494 233.338 450.21 232.244C451.929 231.284 455.476 227.895 457.96 224.656C460.443 221.417 463.201 218.707 464.001 218.695C464.799 218.549 466.776 217.052 468.48 215.158C470.184 213.265 472.028 211.769 472.561 211.761C473.228 211.751 476.517 208.899 479.929 205.379C483.342 201.859 486.633 199.141 487.169 199.266C487.571 199.393 490.064 196.82 492.683 193.713C495.302 190.605 498.179 186.96 499.226 185.743C500.274 184.527 502.737 179.955 504.537 175.659C506.47 171.362 508.535 166.93 509.052 165.855C509.827 164.242 513.551 163.651 527.945 163.161L545.937 162.481L546.139 166.878C546.497 172.74 545.298 181.426 544.221 180.776C543.684 180.518 543.305 181.857 543.2 183.726C543.231 185.726 542.521 191.471 541.802 196.683C539.624 210.985 540.448 221.107 544.151 227.716C544.286 227.848 547.507 229.131 551.263 230.54C557.026 232.45 561.165 232.786 574.357 232.181C591.016 231.522 592.741 230.961 592.654 225.362C592.616 222.962 591.816 222.975 582.363 223.922C569.582 225.187 557.937 222.435 553.724 217.3C551.278 214.404 550.983 212.542 551.371 203.201C551.68 197.329 552.863 187.71 553.974 181.958C555.083 176.074 555.646 169.397 555.211 167.137L554.344 162.884L565.129 161.782C570.986 161.158 578.165 159.713 581.083 158.734C583.866 157.624 586.258 157.053 586.266 157.587C586.272 157.987 584.578 160.547 582.487 163.246C580.528 165.943 577.278 171.328 575.339 175.225C572.109 181.943 571.991 182.878 573.43 189.657C575.437 198.693 581.115 203.672 592.624 206.294C600.654 208.169 604.647 207.707 614.321 203.823C620.021 201.6 635.859 191.086 642.038 185.39C650.321 177.793 651.482 175.241 652.089 162.831C652.727 152.419 652.437 150.957 649.567 146.468C645.198 139.868 643.581 138.827 636.634 138.001C628.352 137.063 628.752 137.057 620.634 138.117C606.792 139.799 605.067 140.359 599.415 145.647C594.288 150.394 593.361 150.809 586.954 150.375C573.739 149.514 557.978 147.892 556.766 147.111C553.535 145.161 555.582 130.994 564.828 90.9785C571.335 63.5407 571.45 62.3388 571.842 53.2649C572.253 45.3909 572.116 45.1263 569.331 46.1031C567.21 46.9361 566.566 48.413 566.493 52.2813C566.401 54.9497 565.776 57.6264 565.116 58.0367C563.401 59.2635 560.48 68.6434 561.436 70.0954C561.846 70.7557 560.959 73.7032 559.538 76.659C554.888 86.3325 549.815 111.748 547.535 136.586L546.744 145.8L533.44 147.74C526.122 148.787 518.81 150.234 517.089 151.061C515.367 151.755 513.777 152.446 513.511 152.45C513.111 152.457 512.79 148.995 512.724 144.728C512.581 135.53 508.111 122.531 503.504 117.802C501.742 115.962 500.242 113.852 500.23 113.052C500.217 112.252 495.77 109.254 490.259 106.406C480.714 101.487 479.508 101.106 466.437 100.909C458.834 100.761 451.891 100.202 450.947 99.5501C449.062 98.3792 455.829 87.6061 460.712 84.3297C463.22 82.6906 464.647 80.1347 465.647 75.852C465.774 75.45 466.545 73.5711 467.314 71.5589C468.854 67.6678 467.931 59.8145 465.932 59.8456C465.265 59.856 464.721 59.1977 464.709 58.3978C464.68 56.5313 458.052 50.5003 453.617 48.3023C451.33 47.0044 447.86 46.7917 442.402 47.4099C428.293 49.0962 425.375 50.075 416.653 55.1445C411.895 57.8855 406.21 61.041 404.093 62.1407C401.843 63.2424 399.2 64.7504 398.148 65.7002C397.096 66.65 391.017 70.2116 384.67 73.644C378.322 77.0765 371.069 82.2565 368.31 84.9664C365.688 87.8075 363.054 89.9821 362.384 89.7258C361.715 89.6028 361.192 90.2777 361.071 91.0797C361.086 92.0129 357.671 95.3997 353.586 98.5303L346.072 104.114L345.618 100.654C345.323 98.7921 346.044 93.7136 347.175 89.2955C348.309 85.0107 348.907 80.6009 348.49 79.5406C348.076 78.6136 348.324 77.4096 348.984 76.9992C349.511 76.591 350.453 77.1098 350.732 77.9055C352.252 81.349 351.624 75.2247 350.093 71.1146C348.702 67.4025 348.029 67.0129 344.302 67.4709C340.842 67.9247 340.186 68.6017 339.838 71.9408C339.738 74.076 338.754 79.4252 337.756 83.8413C336.891 88.2553 335.678 96.0084 335.226 101.216C334.771 106.29 334.19 111.767 333.946 113.237C333.702 114.708 333.312 123.915 333.061 133.52C332.602 146.862 332.803 151.26 334.003 151.241C334.937 151.227 335.214 151.889 334.561 152.833C334.043 153.774 333.686 156.58 333.592 159.115C333.655 163.115 333.132 163.79 329.022 165.32C326.503 166.293 320.654 167.451 315.994 167.923L307.743 168.985L307.374 145.254C307.173 132.323 306.586 120.33 306.159 118.603C305.172 115.152 299.544 113.372 296.375 115.422C294.527 116.651 294.325 120.788 294.429 144.656L294.596 172.523L272.213 173.805C259.956 174.529 247.175 175.794 243.852 176.512C240.529 177.231 233.214 178.411 227.623 179.032C219.234 179.829 217.378 180.525 216.876 182.533C216.373 184.541 212.263 186.071 210.247 185.036C210.112 184.905 207.595 186.011 204.687 187.656C201.777 189.168 193.757 196.494 186.803 203.803C167.912 223.832 164.23 235.758 174.501 244.532C176.934 246.628 179.627 248.32 180.294 248.309C181.094 248.297 183.912 249.453 186.735 250.876C193.456 254.372 202.251 253.969 214.321 249.78C227.98 244.901 239.475 238.055 243.123 232.531L246.252 227.948L245.925 232.62C245.485 238.628 249.444 244.567 253.71 244.501C257.443 244.443 261.337 237.581 262.66 228.36C263.142 225.018 264.154 221.536 264.94 220.59C265.854 219.376 265.707 218.444 264.488 217.263C263.54 216.345 263.14 216.351 263.551 217.011C263.963 217.805 263.457 219.546 262.413 221.029C260.715 223.323 260.58 223.191 260.647 218.923C260.797 211.453 262.206 207.698 265.005 207.654C266.739 207.627 267.686 208.546 267.713 210.279C267.736 211.745 268.577 214.399 269.538 216.118C270.629 217.701 271.202 220.226 270.822 221.565C270.07 224.644 274.311 231.512 278.21 233.585C281.839 235.396 292.354 234.165 297.643 231.283C302.405 228.808 307.27 224.332 307.245 222.732C307.218 220.999 299.225 221.524 295.657 223.579C289.445 227.143 284.068 224.426 283.694 217.498C282.86 206.71 280.94 194.738 280.007 194.753C279.34 194.763 278.817 195.438 278.83 196.238C278.844 197.171 277.505 196.792 275.351 195.492C271.716 193.281 262.115 193.297 257.084 195.642C255.497 196.467 254.826 196.211 254.801 194.611C254.783 193.411 253.968 192.49 253.035 192.505C250.235 192.548 246.84 197.135 246.894 200.601C246.939 203.534 246.537 203.407 240.72 198.03L234.627 192.124L243.011 191.061C247.671 190.588 255.254 189.403 260.041 188.529C264.828 187.654 274.683 186.834 282.149 186.718C290.414 186.59 300.53 185.366 308.104 183.648C315.014 182.073 324.061 180.733 328.193 180.668L335.926 180.548L335.876 203.085C336.014 229.086 336.851 231.473 347.437 234.776C352.53 236.43 354.663 236.397 365.166 234.367C373.54 232.636 378.315 230.962 381.477 228.512C387.537 223.751 389.346 219.989 386.909 217.627C385.284 216.052 384.084 216.07 378.909 217.751C375.458 218.738 371.091 220.94 369.117 222.571C366.481 224.612 363.694 225.455 358.495 225.536C351.962 225.638 351.158 225.383 349.234 221.68C346.214 216.126 346.263 202.123 349.35 194.874C350.634 191.654 352.153 186.43 352.638 183.355C353.122 180.147 353.878 177.335 354.274 177.062C356.52 175.694 417.275 172.349 418.893 173.524C419.706 174.311 423.853 175.18 427.861 175.652C431.869 176.123 435.885 177.127 436.83 177.912C439.665 180.135 442.565 177.957 442.499 173.69C442.428 169.158 436.338 163.385 430.589 162.408C428.583 162.039 424.702 161.166 422.023 160.407C417.74 159.407 378.539 159.616 352.286 160.691L344.291 161.082L343.921 145.886C343.657 137.489 343.8 129.486 344.179 128.147C344.931 125.068 349.064 125.004 351.378 128.035C353.694 131.199 357.323 133.01 363.472 133.981C368.15 134.708 368.417 134.704 367.699 131.382C367.259 128.855 367.776 127.78 370.028 126.811C376.123 124.316 402.731 120.302 420.981 119.085C431.238 118.392 442.953 117.143 446.938 116.148C450.925 115.286 455.712 114.411 457.581 114.515C465.848 114.52 477.605 115.938 478.29 117.127C478.834 117.785 481.509 118.277 484.442 118.232C488.308 118.171 490.722 119.067 493.024 121.299C498.304 126.417 502.176 135.291 503.117 144.344C504.224 155.529 502.905 156.482 486.643 156.869C475.044 157.049 470.267 158.59 474.173 161.063C475.248 161.58 475.541 163.309 474.908 165.452C474.037 169.466 474.976 169.852 480.543 167.632C482.53 166.801 485.717 165.951 487.579 165.655C489.442 165.36 493.297 164.633 495.956 164.058C499.147 163.475 501.015 163.579 501.028 164.379C501.057 166.246 483.134 188.527 480.88 189.362C479.82 189.779 477.86 192.343 476.566 194.897C475.272 197.45 470.027 203.133 464.76 207.482C459.627 211.829 448.047 221.743 439.099 229.483C428.441 238.717 419.74 245.12 413.653 248.148C397.373 256.002 372.996 266.249 359.995 270.585C353.098 272.959 340.764 277.285 332.544 280.346C324.457 283.406 313.179 287.048 307.598 288.335C302.02 289.755 296.716 291.704 295.664 292.654C294.483 293.873 289.965 294.877 283.438 295.378C271.717 296.227 266.128 296.981 249.109 300.179C232.621 303.236 185.154 303.574 179.773 300.59C177.757 299.555 178.142 298.615 183.136 293.871C189.704 287.501 201.731 280.513 215.381 275.1C225.587 271.075 225.985 270.935 230.271 272.202C232.684 272.964 233.079 272.692 232.513 270.567C230.964 265.257 227.893 265.038 215.288 269.101C198.44 274.697 187.837 278.862 185.337 281.035C184.287 282.118 181.499 282.961 179.233 282.997C176.967 283.032 172.982 284.027 170.332 285.135C167.682 286.243 165.166 287.349 164.632 287.358C163.968 287.501 161.064 289.413 157.898 291.596C151.698 295.96 150.696 300.109 155.385 301.503ZM187.402 216.595C189.097 214.168 190.933 212.14 191.599 212.129C192.266 212.119 193.451 211.167 194.235 210.088C196.718 206.849 210.877 199.828 215.41 199.757C223.142 199.637 234.48 208.395 236.058 215.572C237.214 221.288 232.879 225.489 218.32 232.516C202.306 240.366 192.853 241.313 187.967 235.788C183.624 230.922 183.498 222.79 187.402 216.595ZM361.836 114.537C368.322 102.835 393.748 74.303 397.747 74.2408C398.814 74.2242 399.605 73.6785 399.597 73.1452C399.587 72.4786 401.166 71.1206 403.149 70.023C405.132 68.9253 410.55 65.774 415.04 62.9039C419.664 60.165 424.429 57.824 425.762 57.8032C427.095 57.7825 428.686 57.2244 429.343 56.5474C430.132 55.8684 434.915 54.7272 440.108 54.2464C449.293 53.1702 449.559 53.166 452.415 56.722C457.718 63.3071 456.142 73.4661 448.549 82.5186C442.132 90.086 439.807 94.9227 440.936 98.9056C442.065 102.889 439.55 104.128 431.406 103.454C426.464 102.998 421.542 103.741 413.316 106.403C396.197 111.736 391.016 113.017 380.769 114.376C375.58 115.124 370.133 116.409 368.545 117.233C365.769 118.743 360.311 119.362 360.292 118.162C360.286 117.762 361.061 116.15 361.836 114.537ZM433.375 170.098C434.315 170.484 433.652 170.761 431.786 170.79C429.919 170.819 429.249 170.563 430.042 170.15C430.971 169.869 432.571 169.844 433.375 170.098ZM446.406 99.0873C448.793 98.25 448.304 101.058 445.918 102.029C444.594 102.583 444.054 102.191 444.306 101.254C444.56 100.449 445.61 99.3663 446.406 99.0873ZM590.919 165.248C593.398 161.743 597.333 157.548 599.577 156.046C603.406 153.586 603.806 153.58 605.303 155.557C606.936 157.665 607.599 157.388 614.196 152.885C620.66 148.384 621.854 147.965 629.328 148.383C637.069 148.796 637.606 149.054 639.805 153.287C641.316 156.064 642.321 160.715 642.394 165.382L642.51 172.847L633.548 179.654C613.251 195.038 602.798 200.268 595.572 198.647C591.825 197.772 586.98 186.379 586.714 177.849C586.506 173.051 587.4 170.504 590.919 165.248Z"/>
</mask>
<path d="M155.385 301.503C159.134 302.511 160.496 304.357 160.556 308.223C160.583 309.957 161.814 311.938 163.295 312.848C164.776 313.758 165.999 315.206 166.011 316.006C166.026 316.939 167.109 317.989 168.315 318.371C170.865 319.398 194.864 319.158 196.451 318.333C197.374 317.652 219.878 315.569 232.668 314.836C236.665 314.641 240.261 314.318 240.659 314.179C241.054 313.906 245.585 313.702 250.651 313.623C260.783 313.466 280.331 309.961 297.192 305.165C303.035 303.608 309.01 301.915 310.472 301.625C311.932 301.202 314.855 300.49 317.113 299.922C319.238 299.355 321.498 298.92 322.031 298.912C322.562 298.77 323.75 297.952 324.535 297.006C325.456 296.192 327.443 295.361 328.91 295.338C331.309 295.3 334.755 293.913 349.047 286.89C352.093 285.509 355.007 284.264 355.674 284.254C356.207 284.245 362.694 281.211 370.104 277.495C377.38 273.782 386.65 269.637 390.631 268.375C405.359 263.612 431.005 249.212 440.6 240.261C444.148 236.872 448.494 233.338 450.21 232.244C451.929 231.284 455.476 227.895 457.96 224.656C460.443 221.417 463.201 218.707 464.001 218.695C464.799 218.549 466.776 217.052 468.48 215.158C470.184 213.265 472.028 211.769 472.561 211.761C473.228 211.751 476.517 208.899 479.929 205.379C483.342 201.859 486.633 199.141 487.169 199.266C487.571 199.393 490.064 196.82 492.683 193.713C495.302 190.605 498.179 186.96 499.226 185.743C500.274 184.527 502.737 179.955 504.537 175.659C506.47 171.362 508.535 166.93 509.052 165.855C509.827 164.242 513.551 163.651 527.945 163.161L545.937 162.481L546.139 166.878C546.497 172.74 545.298 181.426 544.221 180.776C543.684 180.518 543.305 181.857 543.2 183.726C543.231 185.726 542.521 191.471 541.802 196.683C539.624 210.985 540.448 221.107 544.151 227.716C544.286 227.848 547.507 229.131 551.263 230.54C557.026 232.45 561.165 232.786 574.357 232.181C591.016 231.522 592.741 230.961 592.654 225.362C592.616 222.962 591.816 222.975 582.363 223.922C569.582 225.187 557.937 222.435 553.724 217.3C551.278 214.404 550.983 212.542 551.371 203.201C551.68 197.329 552.863 187.71 553.974 181.958C555.083 176.074 555.646 169.397 555.211 167.137L554.344 162.884L565.129 161.782C570.986 161.158 578.165 159.713 581.083 158.734C583.866 157.624 586.258 157.053 586.266 157.587C586.272 157.987 584.578 160.547 582.487 163.246C580.528 165.943 577.278 171.328 575.339 175.225C572.109 181.943 571.991 182.878 573.43 189.657C575.437 198.693 581.115 203.672 592.624 206.294C600.654 208.169 604.647 207.707 614.321 203.823C620.021 201.6 635.859 191.086 642.038 185.39C650.321 177.793 651.482 175.241 652.089 162.831C652.727 152.419 652.437 150.957 649.567 146.468C645.198 139.868 643.581 138.827 636.634 138.001C628.352 137.063 628.752 137.057 620.634 138.117C606.792 139.799 605.067 140.359 599.415 145.647C594.288 150.394 593.361 150.809 586.954 150.375C573.739 149.514 557.978 147.892 556.766 147.111C553.535 145.161 555.582 130.994 564.828 90.9785C571.335 63.5407 571.45 62.3388 571.842 53.2649C572.253 45.3909 572.116 45.1263 569.331 46.1031C567.21 46.9361 566.566 48.413 566.493 52.2813C566.401 54.9497 565.776 57.6264 565.116 58.0367C563.401 59.2635 560.48 68.6434 561.436 70.0954C561.846 70.7557 560.959 73.7032 559.538 76.659C554.888 86.3325 549.815 111.748 547.535 136.586L546.744 145.8L533.44 147.74C526.122 148.787 518.81 150.234 517.089 151.061C515.367 151.755 513.777 152.446 513.511 152.45C513.111 152.457 512.79 148.995 512.724 144.728C512.581 135.53 508.111 122.531 503.504 117.802C501.742 115.962 500.242 113.852 500.23 113.052C500.217 112.252 495.77 109.254 490.259 106.406C480.714 101.487 479.508 101.106 466.437 100.909C458.834 100.761 451.891 100.202 450.947 99.5501C449.062 98.3792 455.829 87.6061 460.712 84.3297C463.22 82.6906 464.647 80.1347 465.647 75.852C465.774 75.45 466.545 73.5711 467.314 71.5589C468.854 67.6678 467.931 59.8145 465.932 59.8456C465.265 59.856 464.721 59.1977 464.709 58.3978C464.68 56.5313 458.052 50.5003 453.617 48.3023C451.33 47.0044 447.86 46.7917 442.402 47.4099C428.293 49.0962 425.375 50.075 416.653 55.1445C411.895 57.8855 406.21 61.041 404.093 62.1407C401.843 63.2424 399.2 64.7504 398.148 65.7002C397.096 66.65 391.017 70.2116 384.67 73.644C378.322 77.0765 371.069 82.2565 368.31 84.9664C365.688 87.8075 363.054 89.9821 362.384 89.7258C361.715 89.6028 361.192 90.2777 361.071 91.0797C361.086 92.0129 357.671 95.3997 353.586 98.5303L346.072 104.114L345.618 100.654C345.323 98.7921 346.044 93.7136 347.175 89.2955C348.309 85.0107 348.907 80.6009 348.49 79.5406C348.076 78.6136 348.324 77.4096 348.984 76.9992C349.511 76.591 350.453 77.1098 350.732 77.9055C352.252 81.349 351.624 75.2247 350.093 71.1146C348.702 67.4025 348.029 67.0129 344.302 67.4709C340.842 67.9247 340.186 68.6017 339.838 71.9408C339.738 74.076 338.754 79.4252 337.756 83.8413C336.891 88.2553 335.678 96.0084 335.226 101.216C334.771 106.29 334.19 111.767 333.946 113.237C333.702 114.708 333.312 123.915 333.061 133.52C332.602 146.862 332.803 151.26 334.003 151.241C334.937 151.227 335.214 151.889 334.561 152.833C334.043 153.774 333.686 156.58 333.592 159.115C333.655 163.115 333.132 163.79 329.022 165.32C326.503 166.293 320.654 167.451 315.994 167.923L307.743 168.985L307.374 145.254C307.173 132.323 306.586 120.33 306.159 118.603C305.172 115.152 299.544 113.372 296.375 115.422C294.527 116.651 294.325 120.788 294.429 144.656L294.596 172.523L272.213 173.805C259.956 174.529 247.175 175.794 243.852 176.512C240.529 177.231 233.214 178.411 227.623 179.032C219.234 179.829 217.378 180.525 216.876 182.533C216.373 184.541 212.263 186.071 210.247 185.036C210.112 184.905 207.595 186.011 204.687 187.656C201.777 189.168 193.757 196.494 186.803 203.803C167.912 223.832 164.23 235.758 174.501 244.532C176.934 246.628 179.627 248.32 180.294 248.309C181.094 248.297 183.912 249.453 186.735 250.876C193.456 254.372 202.251 253.969 214.321 249.78C227.98 244.901 239.475 238.055 243.123 232.531L246.252 227.948L245.925 232.62C245.485 238.628 249.444 244.567 253.71 244.501C257.443 244.443 261.337 237.581 262.66 228.36C263.142 225.018 264.154 221.536 264.94 220.59C265.854 219.376 265.707 218.444 264.488 217.263C263.54 216.345 263.14 216.351 263.551 217.011C263.963 217.805 263.457 219.546 262.413 221.029C260.715 223.323 260.58 223.191 260.647 218.923C260.797 211.453 262.206 207.698 265.005 207.654C266.739 207.627 267.686 208.546 267.713 210.279C267.736 211.745 268.577 214.399 269.538 216.118C270.629 217.701 271.202 220.226 270.822 221.565C270.07 224.644 274.311 231.512 278.21 233.585C281.839 235.396 292.354 234.165 297.643 231.283C302.405 228.808 307.27 224.332 307.245 222.732C307.218 220.999 299.225 221.524 295.657 223.579C289.445 227.143 284.068 224.426 283.694 217.498C282.86 206.71 280.94 194.738 280.007 194.753C279.34 194.763 278.817 195.438 278.83 196.238C278.844 197.171 277.505 196.792 275.351 195.492C271.716 193.281 262.115 193.297 257.084 195.642C255.497 196.467 254.826 196.211 254.801 194.611C254.783 193.411 253.968 192.49 253.035 192.505C250.235 192.548 246.84 197.135 246.894 200.601C246.939 203.534 246.537 203.407 240.72 198.03L234.627 192.124L243.011 191.061C247.671 190.588 255.254 189.403 260.041 188.529C264.828 187.654 274.683 186.834 282.149 186.718C290.414 186.59 300.53 185.366 308.104 183.648C315.014 182.073 324.061 180.733 328.193 180.668L335.926 180.548L335.876 203.085C336.014 229.086 336.851 231.473 347.437 234.776C352.53 236.43 354.663 236.397 365.166 234.367C373.54 232.636 378.315 230.962 381.477 228.512C387.537 223.751 389.346 219.989 386.909 217.627C385.284 216.052 384.084 216.07 378.909 217.751C375.458 218.738 371.091 220.94 369.117 222.571C366.481 224.612 363.694 225.455 358.495 225.536C351.962 225.638 351.158 225.383 349.234 221.68C346.214 216.126 346.263 202.123 349.35 194.874C350.634 191.654 352.153 186.43 352.638 183.355C353.122 180.147 353.878 177.335 354.274 177.062C356.52 175.694 417.275 172.349 418.893 173.524C419.706 174.311 423.853 175.18 427.861 175.652C431.869 176.123 435.885 177.127 436.83 177.912C439.665 180.135 442.565 177.957 442.499 173.69C442.428 169.158 436.338 163.385 430.589 162.408C428.583 162.039 424.702 161.166 422.023 160.407C417.74 159.407 378.539 159.616 352.286 160.691L344.291 161.082L343.921 145.886C343.657 137.489 343.8 129.486 344.179 128.147C344.931 125.068 349.064 125.004 351.378 128.035C353.694 131.199 357.323 133.01 363.472 133.981C368.15 134.708 368.417 134.704 367.699 131.382C367.259 128.855 367.776 127.78 370.028 126.811C376.123 124.316 402.731 120.302 420.981 119.085C431.238 118.392 442.953 117.143 446.938 116.148C450.925 115.286 455.712 114.411 457.581 114.515C465.848 114.52 477.605 115.938 478.29 117.127C478.834 117.785 481.509 118.277 484.442 118.232C488.308 118.171 490.722 119.067 493.024 121.299C498.304 126.417 502.176 135.291 503.117 144.344C504.224 155.529 502.905 156.482 486.643 156.869C475.044 157.049 470.267 158.59 474.173 161.063C475.248 161.58 475.541 163.309 474.908 165.452C474.037 169.466 474.976 169.852 480.543 167.632C482.53 166.801 485.717 165.951 487.579 165.655C489.442 165.36 493.297 164.633 495.956 164.058C499.147 163.475 501.015 163.579 501.028 164.379C501.057 166.246 483.134 188.527 480.88 189.362C479.82 189.779 477.86 192.343 476.566 194.897C475.272 197.45 470.027 203.133 464.76 207.482C459.627 211.829 448.047 221.743 439.099 229.483C428.441 238.717 419.74 245.12 413.653 248.148C397.373 256.002 372.996 266.249 359.995 270.585C353.098 272.959 340.764 277.285 332.544 280.346C324.457 283.406 313.179 287.048 307.598 288.335C302.02 289.755 296.716 291.704 295.664 292.654C294.483 293.873 289.965 294.877 283.438 295.378C271.717 296.227 266.128 296.981 249.109 300.179C232.621 303.236 185.154 303.574 179.773 300.59C177.757 299.555 178.142 298.615 183.136 293.871C189.704 287.501 201.731 280.513 215.381 275.1C225.587 271.075 225.985 270.935 230.271 272.202C232.684 272.964 233.079 272.692 232.513 270.567C230.964 265.257 227.893 265.038 215.288 269.101C198.44 274.697 187.837 278.862 185.337 281.035C184.287 282.118 181.499 282.961 179.233 282.997C176.967 283.032 172.982 284.027 170.332 285.135C167.682 286.243 165.166 287.349 164.632 287.358C163.968 287.501 161.064 289.413 157.898 291.596C151.698 295.96 150.696 300.109 155.385 301.503ZM187.402 216.595C189.097 214.168 190.933 212.14 191.599 212.129C192.266 212.119 193.451 211.167 194.235 210.088C196.718 206.849 210.877 199.828 215.41 199.757C223.142 199.637 234.48 208.395 236.058 215.572C237.214 221.288 232.879 225.489 218.32 232.516C202.306 240.366 192.853 241.313 187.967 235.788C183.624 230.922 183.498 222.79 187.402 216.595ZM361.836 114.537C368.322 102.835 393.748 74.303 397.747 74.2408C398.814 74.2242 399.605 73.6785 399.597 73.1452C399.587 72.4786 401.166 71.1206 403.149 70.023C405.132 68.9253 410.55 65.774 415.04 62.9039C419.664 60.165 424.429 57.824 425.762 57.8032C427.095 57.7825 428.686 57.2244 429.343 56.5474C430.132 55.8684 434.915 54.7272 440.108 54.2464C449.293 53.1702 449.559 53.166 452.415 56.722C457.718 63.3071 456.142 73.4661 448.549 82.5186C442.132 90.086 439.807 94.9227 440.936 98.9056C442.065 102.889 439.55 104.128 431.406 103.454C426.464 102.998 421.542 103.741 413.316 106.403C396.197 111.736 391.016 113.017 380.769 114.376C375.58 115.124 370.133 116.409 368.545 117.233C365.769 118.743 360.311 119.362 360.292 118.162C360.286 117.762 361.061 116.15 361.836 114.537ZM433.375 170.098C434.315 170.484 433.652 170.761 431.786 170.79C429.919 170.819 429.249 170.563 430.042 170.15C430.971 169.869 432.571 169.844 433.375 170.098ZM446.406 99.0873C448.793 98.25 448.304 101.058 445.918 102.029C444.594 102.583 444.054 102.191 444.306 101.254C444.56 100.449 445.61 99.3663 446.406 99.0873ZM590.919 165.248C593.398 161.743 597.333 157.548 599.577 156.046C603.406 153.586 603.806 153.58 605.303 155.557C606.936 157.665 607.599 157.388 614.196 152.885C620.66 148.384 621.854 147.965 629.328 148.383C637.069 148.796 637.606 149.054 639.805 153.287C641.316 156.064 642.321 160.715 642.394 165.382L642.51 172.847L633.548 179.654C613.251 195.038 602.798 200.268 595.572 198.647C591.825 197.772 586.98 186.379 586.714 177.849C586.506 173.051 587.4 170.504 590.919 165.248Z" fill="white" stroke="none" />
<path d="M375.326 133.998L375.326 133.998L375.321 133.994C373.858 132.9 372.502 132.389 371.544 132.388C371.069 132.388 370.714 132.513 370.483 132.726C370.255 132.937 370.112 133.264 370.119 133.744C370.125 134.134 370.424 134.53 371.094 134.836C371.755 135.139 372.718 135.32 373.894 135.302C374.76 135.289 375.407 135.262 375.861 135.208C376.088 135.181 376.258 135.149 376.378 135.112C376.47 135.083 376.516 135.057 376.537 135.042C376.522 135.005 376.48 134.939 376.385 134.84C376.186 134.631 375.833 134.358 375.326 133.998Z" fill="white" stroke="white" stroke-width="0.5"/>
<mask id="path-3-inside-2_1622_19107" fill="white">
<path d="M568.948 110.629C570.029 111.545 572.828 111.502 577.082 110.635C605.929 104.853 650.265 100.43 652.973 103.055C653.379 103.448 652.962 110.922 652.03 119.605C651.101 128.42 650.317 138.034 650.362 140.967C650.41 144.033 649.922 146.974 649.266 147.651C647.166 149.817 645.38 163.58 644.36 183.732C643.54 199.613 642.337 208.033 638.757 226.491C638.513 227.961 639.082 230.219 640.034 231.405C641.531 233.382 642.333 233.503 645.11 231.993C647.491 230.755 648.66 228.737 649.135 224.996C649.623 222.054 651.1 214.164 652.465 207.609C653.828 200.92 655.908 188.886 656.984 180.868C657.924 172.719 659.126 164.3 659.491 162.027L659.958 157.753L671.675 156.637C684.726 155.501 698.016 152.627 710.219 148.437C717.648 145.921 724.313 145.817 722.082 148.119C721.555 148.527 721.838 149.59 722.52 150.512C723.199 151.302 723.771 153.827 723.804 155.96C723.838 158.093 723.837 166.627 723.832 174.895C723.696 183.298 724.206 190.358 724.743 190.616C725.416 191.006 725.562 191.804 725.172 192.476C724.262 193.957 727.689 217.107 729.055 219.219C729.468 220.013 731.205 220.253 732.665 219.83C735.052 218.993 735.171 218.057 734.626 208.731C734.141 203.272 733.529 198.214 733.252 197.551C732.844 197.024 732.965 196.222 733.494 195.947C734.55 195.264 734.507 192.465 733.579 175.677C733.387 171.946 733.128 163.816 733.159 157.281L733.112 145.681L737.112 145.618C739.245 145.585 741.101 144.89 741.089 144.09C741.074 143.156 742.538 143 745.08 143.494C747.354 143.992 749.883 143.686 750.806 143.005C751.729 142.324 755.704 140.662 759.683 139.267C768.836 136.191 770.675 134.429 773.492 126.917C775.919 120.079 774.774 115.029 770.35 113.498C769.008 112.985 767.527 112.075 766.982 111.283C766.436 110.492 765.49 109.706 764.957 109.714C761.48 109.102 757.854 107.425 757.837 106.358C757.827 105.691 756.625 105.577 755.165 106C753.707 106.556 752.503 106.308 752.49 105.508C752.478 104.708 751.667 104.054 750.734 104.068C749.934 104.081 747.522 103.318 745.639 102.281C743.758 101.376 740.673 100.224 738.667 99.8553C736.792 99.3511 734.768 97.7824 734.345 96.3221C732.946 92.0767 734.671 82.9821 736.937 82.9468C738.356 83.2861 766.173 95.4509 770.35 98.1863C779.917 104.572 801.856 117.286 801.856 117.286L826 99.1641C826 99.1641 842.818 83.034 842.802 81.9675C842.785 80.9009 843.97 79.9491 845.437 79.9263C846.903 79.9035 848.489 78.9454 848.872 77.8726C849.389 76.7978 851.241 75.8355 853.24 75.8044C855.24 75.7733 857.496 75.0715 858.415 74.1238C859.596 72.9053 859.996 72.899 860.015 74.0989C860.029 75.0321 859.373 75.7091 858.573 75.7215C857.773 75.734 857.386 76.5401 857.798 77.3338C858.079 78.2628 857.325 81.2083 856.165 83.7599C853.969 88.328 851.683 95.6977 849.697 105.196C849.203 107.738 848.207 112.287 847.453 115.233C845.827 122.192 844.528 141.548 845.048 149.274C845.367 152.603 845.718 158.065 845.906 161.529C845.962 165.128 846.538 167.92 846.938 167.914C847.338 167.907 848.467 171.89 849.477 176.808C851.772 187.174 853.003 189.155 857.269 189.089C859.935 189.047 860.456 188.239 861.038 182.763C861.515 179.155 862.249 174.876 862.886 173C863.909 170.183 864.492 147.638 863.824 138.981C863.012 129.659 863.603 107.647 864.537 107.633C865.203 107.622 865.587 106.55 865.566 105.216C865.547 104.017 866.518 97.8673 868.021 91.5765C869.39 85.2878 870.872 77.6639 871.357 74.5893C872.443 67.2382 874.553 65.7385 894.172 58.2326C899.74 56.1458 902.474 51.8361 900.289 48.5363C897.964 44.8387 868.059 51.1711 862.274 56.4617C861.224 57.5448 859.237 58.3758 857.904 58.3965C856.704 58.4152 855.383 59.2358 855 60.3085C854.616 61.3813 853.292 61.9353 851.686 61.5602C849.677 61.0581 848.753 61.6058 848.252 63.7472C847.877 65.3532 846.563 66.5738 845.096 66.5966C843.63 66.6194 842.572 67.1693 842.584 67.9692C842.594 68.6358 842.072 69.3106 841.405 69.321C840.738 69.3314 836.376 71.7995 831.889 74.8029C827.266 77.6752 820.267 82.0512 816.567 84.2423C812.736 86.5688 808.655 89.966 807.484 91.8511C803.32 98.45 801.189 98.6164 792.567 93.0165C788.389 90.1478 783.548 87.556 781.807 87.0497C780.199 86.5413 778.849 85.4955 778.838 84.8289C778.828 84.1624 777.353 83.6519 775.487 83.6809C773.62 83.7099 772.144 83.0661 772.133 82.3996C772.121 81.5997 770.246 81.0954 768.113 81.1286C765.847 81.1638 764.105 80.6575 764.097 80.1242C764.078 78.9244 754.694 75.7366 750.422 75.4029C749.087 75.2903 747.614 74.9132 747.206 74.3862C746.664 73.8612 745.191 73.484 744.125 73.5006C742.925 73.5193 740.369 72.0922 738.34 70.2568C735.772 68.0298 733.089 67.0047 729.623 67.0586C724.557 67.1374 714.26 65.2973 710.503 63.7555C709.428 63.2388 707.288 62.872 705.818 62.6282C702.614 62.4113 679.071 57.7101 669.033 55.3326C656.72 52.457 640.675 49.6394 634.267 49.2057C630.93 48.9908 624.641 47.6218 620.352 46.2216C616.066 44.9548 611.652 44.09 610.725 44.5044C609.798 44.9189 607.654 44.2855 605.902 43.1126C601.859 40.3751 598.528 40.5603 596.843 43.6535C594.643 47.9549 596.811 50.1881 604.302 51.6718C608.18 52.4116 611.788 52.8889 612.453 52.7452C613.117 52.6016 613.919 52.7224 614.321 52.8495C615.125 53.1037 618.467 53.5852 633.025 55.0923C644.778 56.2431 651.598 57.4705 676.488 63.0842C684.518 64.9596 696.56 67.5727 703.251 69.0689C709.806 70.4338 718.243 72.7029 721.734 74.2488L728.177 76.949L727.47 82.9607C727.122 86.2998 726.519 90.443 726.276 91.9137C725.661 95.257 722.09 97.1794 719.797 95.4815C718.987 94.8274 716.312 94.3355 713.777 94.2416C711.373 94.0123 708.298 93.5267 707.088 92.8788C705.878 92.2308 702.674 92.014 699.877 92.1908C697.215 92.4989 694.944 92.2675 694.936 91.7342C694.927 91.201 689.991 91.011 683.86 91.2397C677.596 91.4705 672.122 91.0222 671.176 90.2368C669.826 89.191 669.029 89.3367 668.379 90.4136C666.818 92.9715 663.646 86.22 664.651 82.2039C665.024 80.4646 664.859 78.4669 664.053 78.0794C661.63 76.6502 657.683 80.0453 656.816 84.326C655.947 88.4733 652.383 90.7957 646.519 91.0202C644.919 91.0451 641.19 91.3698 638.263 91.8153C635.335 92.1276 628.146 92.9061 622.286 93.3973C616.428 94.0217 609.244 95.0669 606.321 95.7791C600.48 97.4701 598.087 97.9074 586.38 99.6896C577.599 101.026 567.265 105.321 567.169 107.723C567.181 108.522 568.002 109.843 568.948 110.629ZM659.951 114.414C660.974 103.064 662.164 102.378 678.978 103.184C690.854 103.666 705.81 105.033 715.299 106.353C716.503 106.601 718.784 107.499 720.267 108.542C723.097 110.499 723.693 114.49 723.706 132.492L723.666 138.493L711.992 142.409C695.144 148.004 677.735 151.876 668.27 152.023L660.004 152.151L659.33 143.094C658.785 133.768 658.948 127.098 659.951 114.414ZM733.398 112.605C735.044 106.979 763.344 117.474 763.442 123.74C763.487 126.673 750.534 134.075 742.291 135.67C741.891 135.676 740.566 136.23 739.375 136.782C738.183 137.334 735.915 137.236 734.434 136.326C731.88 135.032 731.732 134.101 732.252 124.625C732.564 119.019 733.146 113.543 733.398 112.605Z"/>
</mask>
<path d="M568.948 110.629C570.029 111.545 572.828 111.502 577.082 110.635C605.929 104.853 650.265 100.43 652.973 103.055C653.379 103.448 652.962 110.922 652.03 119.605C651.101 128.42 650.317 138.034 650.362 140.967C650.41 144.033 649.922 146.974 649.266 147.651C647.166 149.817 645.38 163.58 644.36 183.732C643.54 199.613 642.337 208.033 638.757 226.491C638.513 227.961 639.082 230.219 640.034 231.405C641.531 233.382 642.333 233.503 645.11 231.993C647.491 230.755 648.66 228.737 649.135 224.996C649.623 222.054 651.1 214.164 652.465 207.609C653.828 200.92 655.908 188.886 656.984 180.868C657.924 172.719 659.126 164.3 659.491 162.027L659.958 157.753L671.675 156.637C684.726 155.501 698.016 152.627 710.219 148.437C717.648 145.921 724.313 145.817 722.082 148.119C721.555 148.527 721.838 149.59 722.52 150.512C723.199 151.302 723.771 153.827 723.804 155.96C723.838 158.093 723.837 166.627 723.832 174.895C723.696 183.298 724.206 190.358 724.743 190.616C725.416 191.006 725.562 191.804 725.172 192.476C724.262 193.957 727.689 217.107 729.055 219.219C729.468 220.013 731.205 220.253 732.665 219.83C735.052 218.993 735.171 218.057 734.626 208.731C734.141 203.272 733.529 198.214 733.252 197.551C732.844 197.024 732.965 196.222 733.494 195.947C734.55 195.264 734.507 192.465 733.579 175.677C733.387 171.946 733.128 163.816 733.159 157.281L733.112 145.681L737.112 145.618C739.245 145.585 741.101 144.89 741.089 144.09C741.074 143.156 742.538 143 745.08 143.494C747.354 143.992 749.883 143.686 750.806 143.005C751.729 142.324 755.704 140.662 759.683 139.267C768.836 136.191 770.675 134.429 773.492 126.917C775.919 120.079 774.774 115.029 770.35 113.498C769.008 112.985 767.527 112.075 766.982 111.283C766.436 110.492 765.49 109.706 764.957 109.714C761.48 109.102 757.854 107.425 757.837 106.358C757.827 105.691 756.625 105.577 755.165 106C753.707 106.556 752.503 106.308 752.49 105.508C752.478 104.708 751.667 104.054 750.734 104.068C749.934 104.081 747.522 103.318 745.639 102.281C743.758 101.376 740.673 100.224 738.667 99.8553C736.792 99.3511 734.768 97.7824 734.345 96.3221C732.946 92.0767 734.671 82.9821 736.937 82.9468C738.356 83.2861 766.173 95.4509 770.35 98.1863C779.917 104.572 801.856 117.286 801.856 117.286L826 99.1641C826 99.1641 842.818 83.034 842.802 81.9675C842.785 80.9009 843.97 79.9491 845.437 79.9263C846.903 79.9035 848.489 78.9454 848.872 77.8726C849.389 76.7978 851.241 75.8355 853.24 75.8044C855.24 75.7733 857.496 75.0715 858.415 74.1238C859.596 72.9053 859.996 72.899 860.015 74.0989C860.029 75.0321 859.373 75.7091 858.573 75.7215C857.773 75.734 857.386 76.5401 857.798 77.3338C858.079 78.2628 857.325 81.2083 856.165 83.7599C853.969 88.328 851.683 95.6977 849.697 105.196C849.203 107.738 848.207 112.287 847.453 115.233C845.827 122.192 844.528 141.548 845.048 149.274C845.367 152.603 845.718 158.065 845.906 161.529C845.962 165.128 846.538 167.92 846.938 167.914C847.338 167.907 848.467 171.89 849.477 176.808C851.772 187.174 853.003 189.155 857.269 189.089C859.935 189.047 860.456 188.239 861.038 182.763C861.515 179.155 862.249 174.876 862.886 173C863.909 170.183 864.492 147.638 863.824 138.981C863.012 129.659 863.603 107.647 864.537 107.633C865.203 107.622 865.587 106.55 865.566 105.216C865.547 104.017 866.518 97.8673 868.021 91.5765C869.39 85.2878 870.872 77.6639 871.357 74.5893C872.443 67.2382 874.553 65.7385 894.172 58.2326C899.74 56.1458 902.474 51.8361 900.289 48.5363C897.964 44.8387 868.059 51.1711 862.274 56.4617C861.224 57.5448 859.237 58.3758 857.904 58.3965C856.704 58.4152 855.383 59.2358 855 60.3085C854.616 61.3813 853.292 61.9353 851.686 61.5602C849.677 61.0581 848.753 61.6058 848.252 63.7472C847.877 65.3532 846.563 66.5738 845.096 66.5966C843.63 66.6194 842.572 67.1693 842.584 67.9692C842.594 68.6358 842.072 69.3106 841.405 69.321C840.738 69.3314 836.376 71.7995 831.889 74.8029C827.266 77.6752 820.267 82.0512 816.567 84.2423C812.736 86.5688 808.655 89.966 807.484 91.8511C803.32 98.45 801.189 98.6164 792.567 93.0165C788.389 90.1478 783.548 87.556 781.807 87.0497C780.199 86.5413 778.849 85.4955 778.838 84.8289C778.828 84.1624 777.353 83.6519 775.487 83.6809C773.62 83.7099 772.144 83.0661 772.133 82.3996C772.121 81.5997 770.246 81.0954 768.113 81.1286C765.847 81.1638 764.105 80.6575 764.097 80.1242C764.078 78.9244 754.694 75.7366 750.422 75.4029C749.087 75.2903 747.614 74.9132 747.206 74.3862C746.664 73.8612 745.191 73.484 744.125 73.5006C742.925 73.5193 740.369 72.0922 738.34 70.2568C735.772 68.0298 733.089 67.0047 729.623 67.0586C724.557 67.1374 714.26 65.2973 710.503 63.7555C709.428 63.2388 707.288 62.872 705.818 62.6282C702.614 62.4113 679.071 57.7101 669.033 55.3326C656.72 52.457 640.675 49.6394 634.267 49.2057C630.93 48.9908 624.641 47.6218 620.352 46.2216C616.066 44.9548 611.652 44.09 610.725 44.5044C609.798 44.9189 607.654 44.2855 605.902 43.1126C601.859 40.3751 598.528 40.5603 596.843 43.6535C594.643 47.9549 596.811 50.1881 604.302 51.6718C608.18 52.4116 611.788 52.8889 612.453 52.7452C613.117 52.6016 613.919 52.7224 614.321 52.8495C615.125 53.1037 618.467 53.5852 633.025 55.0923C644.778 56.2431 651.598 57.4705 676.488 63.0842C684.518 64.9596 696.56 67.5727 703.251 69.0689C709.806 70.4338 718.243 72.7029 721.734 74.2488L728.177 76.949L727.47 82.9607C727.122 86.2998 726.519 90.443 726.276 91.9137C725.661 95.257 722.09 97.1794 719.797 95.4815C718.987 94.8274 716.312 94.3355 713.777 94.2416C711.373 94.0123 708.298 93.5267 707.088 92.8788C705.878 92.2308 702.674 92.014 699.877 92.1908C697.215 92.4989 694.944 92.2675 694.936 91.7342C694.927 91.201 689.991 91.011 683.86 91.2397C677.596 91.4705 672.122 91.0222 671.176 90.2368C669.826 89.191 669.029 89.3367 668.379 90.4136C666.818 92.9715 663.646 86.22 664.651 82.2039C665.024 80.4646 664.859 78.4669 664.053 78.0794C661.63 76.6502 657.683 80.0453 656.816 84.326C655.947 88.4733 652.383 90.7957 646.519 91.0202C644.919 91.0451 641.19 91.3698 638.263 91.8153C635.335 92.1276 628.146 92.9061 622.286 93.3973C616.428 94.0217 609.244 95.0669 606.321 95.7791C600.48 97.4701 598.087 97.9074 586.38 99.6896C577.599 101.026 567.265 105.321 567.169 107.723C567.181 108.522 568.002 109.843 568.948 110.629ZM659.951 114.414C660.974 103.064 662.164 102.378 678.978 103.184C690.854 103.666 705.81 105.033 715.299 106.353C716.503 106.601 718.784 107.499 720.267 108.542C723.097 110.499 723.693 114.49 723.706 132.492L723.666 138.493L711.992 142.409C695.144 148.004 677.735 151.876 668.27 152.023L660.004 152.151L659.33 143.094C658.785 133.768 658.948 127.098 659.951 114.414ZM733.398 112.605C735.044 106.979 763.344 117.474 763.442 123.74C763.487 126.673 750.534 134.075 742.291 135.67C741.891 135.676 740.566 136.23 739.375 136.782C738.183 137.334 735.915 137.236 734.434 136.326C731.88 135.032 731.732 134.101 732.252 124.625C732.564 119.019 733.146 113.543 733.398 112.605Z" fill="white" stroke="white" mask="url(#path-3-inside-2_1622_19107)"/>
<path d="M952.33 215.965L952.54 215.83C952.699 216.075 952.852 216.231 953.001 216.323C953.146 216.412 953.297 216.447 953.469 216.432C953.835 216.399 954.31 216.139 954.964 215.599C955.523 215.097 956.379 214.639 957.285 214.287C958.195 213.934 959.181 213.678 960.007 213.597C961.569 213.442 963.928 212.749 965.378 212.197C966.262 211.774 967.022 211.641 967.686 211.819C968.356 211.999 968.874 212.482 969.303 213.173L969.303 213.173L969.307 213.179C969.567 213.624 970.138 213.973 970.913 214.195C971.679 214.416 972.598 214.5 973.483 214.453C974.371 214.407 975.204 214.231 975.805 213.948C976.417 213.658 976.708 213.301 976.702 212.919C976.699 212.707 976.527 212.433 976.139 212.137C975.765 211.851 975.245 211.587 974.675 211.385C974.106 211.184 973.501 211.049 972.965 211.014C972.425 210.978 971.994 211.046 971.729 211.206C971.618 211.287 971.476 211.331 971.333 211.357C971.18 211.384 970.999 211.396 970.8 211.394C970.4 211.392 969.898 211.339 969.332 211.247C968.198 211.062 966.782 210.714 965.367 210.267C963.46 209.708 960.053 209.361 954.168 209.253C948.288 209.144 939.961 209.274 928.233 209.656L928.233 209.656C902.312 210.459 888.977 210.867 881.287 210.836C873.586 210.805 871.521 210.335 868.147 209.38C864.823 208.486 861.291 206.385 858.852 204.236C857.633 203.162 856.67 202.061 856.146 201.077C855.629 200.108 855.491 199.148 856.137 198.482C856.209 198.407 856.313 198.347 856.419 198.296C856.53 198.243 856.667 198.19 856.826 198.137C857.144 198.03 857.565 197.917 858.075 197.799C859.097 197.562 860.491 197.302 862.156 197.034C865.487 196.498 869.917 195.929 874.648 195.455L874.648 195.455C879.436 194.981 883.922 194.378 887.324 193.81C889.025 193.525 890.453 193.25 891.511 193.003C892.04 192.88 892.474 192.765 892.801 192.661C893.139 192.553 893.333 192.466 893.412 192.409C893.899 192.049 894.461 191.791 894.997 191.675C895.521 191.562 896.055 191.578 896.466 191.81C896.497 191.823 896.566 191.842 896.687 191.855C896.811 191.868 896.971 191.874 897.163 191.872C897.547 191.868 898.045 191.832 898.623 191.765C899.775 191.632 901.225 191.378 902.674 191.025C905.474 190.179 910.528 189.033 913.847 188.315L913.849 188.315C924.277 186.154 932.693 183.826 938.638 181.49C941.612 180.322 943.958 179.156 945.626 178.013C947.304 176.864 948.254 175.768 948.514 174.755C948.726 173.881 948.737 173.17 948.423 172.479C948.103 171.78 947.432 171.064 946.192 170.227C943.707 168.55 939.068 166.465 930.872 163.055L930.871 163.055C925.096 160.61 921.662 159.272 918.459 158.562C915.262 157.852 912.285 157.764 907.421 157.84C900.645 157.945 891.549 159.25 882.987 161.148C874.42 163.047 866.419 165.534 861.821 167.989L861.817 167.991C857.147 170.384 852.025 174.216 847.734 178.288C843.438 182.365 840.003 186.656 838.676 189.959L838.676 189.96L838.671 189.97C838.02 191.394 837.231 192.723 836.483 193.702C836.109 194.191 835.741 194.599 835.399 194.889C835.069 195.169 834.722 195.375 834.396 195.38C833.862 195.388 833.5 195.512 833.28 195.687C833.07 195.854 832.967 196.086 832.978 196.38C833.002 196.998 833.54 197.894 834.736 198.794L834.736 198.794L834.745 198.802C835.261 199.23 835.826 200.096 836.312 201.095C836.801 202.102 837.226 203.282 837.448 204.369C837.695 205.479 838.024 206.379 838.6 207.186C839.177 207.994 840.012 208.726 841.296 209.477C843.874 210.987 848.204 212.545 855.717 214.964L855.717 214.964C861.004 216.68 864.3 217.589 869.234 218.109C874.178 218.631 880.768 218.762 892.642 218.911C903.114 219.014 909.672 219.012 914.009 218.762C918.348 218.511 920.425 218.013 921.959 217.151L921.965 217.148L921.972 217.145C923.112 216.586 924.262 216.193 925.222 216.023C925.701 215.939 926.141 215.908 926.514 215.946C926.882 215.982 927.215 216.089 927.443 216.309C927.561 216.424 927.79 216.532 928.145 216.604C928.493 216.674 928.931 216.704 929.435 216.688C930.441 216.656 931.681 216.442 932.92 216.029L932.92 216.029L932.927 216.027C936.011 215.103 940.596 214.598 944.54 214.536C946.514 214.506 948.338 214.586 949.742 214.784C950.443 214.882 951.048 215.011 951.518 215.174C951.974 215.332 952.356 215.54 952.541 215.831L952.33 215.965ZM952.33 215.965C951.237 214.249 939.105 214.438 932.999 216.266L969.091 213.305C968.27 211.984 967.197 211.6 965.477 212.427C964.019 212.983 961.629 213.687 960.032 213.845C958.434 214.004 956.18 214.839 955.128 215.789C953.811 216.876 953.013 217.022 952.33 215.965ZM931.16 175.168L931.159 175.168C930.589 175.537 929.488 175.894 928.189 176.165C926.879 176.438 925.333 176.63 923.849 176.653C921.068 176.697 916.564 177.298 913.929 178C911.257 178.713 903.132 180.174 895.808 181.088C892.151 181.545 888.596 182.067 885.823 182.526C884.436 182.756 883.246 182.97 882.338 183.152C881.42 183.336 880.813 183.483 880.572 183.578C879.495 184.001 877.356 184.572 875.735 184.734C874.268 185.025 870.438 185.881 867.407 186.855L867.407 186.855L867.395 186.858C865.795 187.285 864.29 187.61 863.13 187.78C862.551 187.865 862.051 187.912 861.664 187.911C861.472 187.911 861.299 187.899 861.156 187.871C861.021 187.844 860.873 187.796 860.77 187.696C860.73 187.657 860.633 187.61 860.442 187.596C860.258 187.583 860.021 187.604 859.745 187.663C859.194 187.782 858.525 188.048 857.886 188.445L857.878 188.45L857.87 188.454C857.338 188.731 856.897 188.93 856.536 189.034C856.181 189.137 855.852 189.162 855.58 189.019C855.301 188.873 855.156 188.59 855.073 188.255C854.99 187.919 854.959 187.478 854.951 186.943C854.944 186.514 855.117 185.993 855.404 185.429C855.694 184.859 856.115 184.218 856.636 183.543C857.678 182.194 859.134 180.692 860.792 179.323C864.904 175.832 871.649 172.382 878.656 169.836C885.662 167.289 892.971 165.631 898.218 165.751C908.57 165.924 918.213 167.243 924.566 168.985C927.733 169.853 930.119 170.836 931.358 171.858C931.976 172.368 932.361 172.931 932.341 173.537C932.321 174.147 931.895 174.69 931.16 175.168Z" fill="white" stroke="white" stroke-width="0.5"/>
<path d="M33.5153 243.149C35.6607 244.463 39.6617 244.56 49.3886 243.804C64.4448 242.6 64.0412 242.203 64.5559 254.733C65.0461 264.595 67.2257 269.642 70.9589 269.608C72.5588 269.593 77.07 267.152 81.043 264.182C87 259.461 88.0532 257.984 88.1512 254.117C88.2614 251.582 88.3678 248.648 88.4926 247.713C88.6186 246.912 87.8114 246.12 86.7447 246.129C85.6781 246.139 84.3302 244.551 83.7786 242.556C82.8111 238.832 84.1249 236.686 86.5382 238.131C87.7443 238.786 88.8085 238.51 95.4431 234.983C97.1678 234.033 100.228 233.339 102.495 233.318C104.628 233.298 106.489 232.615 106.482 231.948C106.475 231.148 107.537 230.605 108.737 230.594C112.737 230.557 125.107 227.244 125.097 226.178C125.092 225.644 127.352 224.824 130.014 224.399C142.529 222.285 159.286 217.464 164.193 214.619C167.244 212.858 171.23 211.355 173.23 211.337C175.363 211.317 176.96 210.902 176.953 210.236C176.94 208.769 185.821 202.954 188.617 202.529C193.413 202.085 215.448 191.216 215.431 189.35C215.426 188.816 218.739 186.653 222.722 184.749C226.704 182.713 230.019 180.682 230.014 180.149C230.009 179.616 231.466 178.536 233.325 177.719C235.184 176.902 236.634 175.022 236.756 173.821C236.743 172.354 237.14 172.084 237.549 173.013C238.504 175.405 240.635 175.118 240.613 172.719C240.603 171.652 241.395 170.711 242.461 170.702C243.528 170.692 245.511 168.807 246.957 166.527C248.269 164.248 249.853 162.5 250.386 162.495C252.923 162.872 254.116 162.061 260.192 155.739C263.891 151.971 267.579 147.004 268.491 144.729C269.403 142.321 271.241 139.237 272.562 137.891C273.882 136.413 274.929 134.27 274.919 133.203C274.909 132.003 275.279 128.8 275.655 126.129C276.415 121.722 275.871 120.66 270.351 114.844C266.852 111.276 262.418 107.583 260.408 106.535C258.399 105.486 254.776 102.986 252.356 100.875C248.322 97.1782 240.296 94.3182 219.179 88.9111C200.868 84.1451 173.109 81.4656 149.112 81.9518C129.249 82.4002 117.135 84.6445 89.4763 92.8979C86.9492 93.5877 86.5468 93.3247 86.5187 90.2581C86.5004 88.2582 85.2749 85.4693 83.7936 83.8828C82.0433 82.0321 81.3584 80.0383 81.8734 78.0335C82.3872 75.8953 81.8441 74.8336 79.9726 74.3174C75.1582 72.7613 73.0433 74.7808 72.9648 80.7817C72.9916 83.715 72.2478 89.8553 71.3535 94.1304C69.8243 101.878 69.6922 102.013 64.1083 103.797C55.9973 106.271 51.7894 112.71 57.2717 114.393C58.6086 114.781 61.2715 114.357 63.2641 113.539C67.3802 111.634 71.2686 113.999 70.3695 117.74C69.9817 119.077 70.2593 120.275 70.9284 120.535C71.5975 120.796 71.617 122.929 70.8414 125.603C70.0646 128.144 69.1777 133.219 68.9452 136.954C68.7115 140.556 67.8355 146.831 67.0709 150.705C66.1742 154.714 65.8169 159.384 66.2328 161.113C66.5153 162.844 66.3978 164.579 66.0015 164.982C65.4706 165.254 64.9849 170.459 64.9065 176.459C64.828 182.46 64.2126 188.066 63.5533 188.872C60.916 192.097 59.1527 217.981 61.0803 224.63C62.8648 230.214 61.1474 231.963 52.7575 233.106C35.3111 235.399 34.6457 235.539 32.6726 238.49C30.9637 241.173 31.1019 241.705 33.5153 243.149ZM84.2456 206.15C84.598 200.947 85.0617 193.342 85.4239 189.206C85.7824 184.669 85.4841 181.205 84.5471 180.813C83.7423 180.287 83.6004 179.355 84.5251 178.413C86.1068 176.399 85.958 160.133 84.358 160.148C83.6914 160.154 83.9459 158.818 84.8633 157.076C86.0449 155.065 86.6445 147.726 86.7745 132.791C86.9338 121.056 87.5005 110.117 88.1525 108.511C89.3219 105.166 91.317 104.615 115.27 99.3288C124.053 97.5151 136.162 94.7375 142.148 93.216C148.401 91.6921 156.126 90.688 160.128 90.9181C183.207 92.1737 191.615 93.0301 207.64 95.6836C217.522 97.3266 225.67 98.8521 225.672 99.1188C227.979 103.498 229.995 105.213 235.882 107.426C243.376 110.424 254.138 120.726 255.656 126.312C258.137 135.223 245.624 152.005 230.499 160.277C226.121 162.717 221.743 165.158 220.817 165.966C215.257 170.417 176.101 189.976 172.635 190.008C172.102 190.013 167.851 191.785 163.204 193.961C158.557 196.137 152.713 198.59 150.185 199.28C142.74 201.615 127.327 207.623 125.74 208.971C123.226 211.127 101.837 219.723 92.2619 222.478L83.0855 225.095L83.3082 220.293C83.4172 217.625 83.8919 211.221 84.2456 206.15Z" fill="white"/>
</g>
<defs>
<clipPath id="clip0_1622_19107">
<rect width="326.667" height="1056" fill="white" transform="translate(5.0791 343.045) rotate(-90.8908)"/>
</clipPath>
</defs>
</svg>
