<svg width="28" height="18" viewBox="0 0 28 18" fill="none" xmlns="http://www.w3.org/2000/svg">
<path d="M8.66797 5.66671H19.3346V8.33337H8.66797V5.66671ZM24.8013 7.00004H27.3346C27.3346 3.32004 24.348 0.333374 20.668 0.333374H15.3346V2.86671H20.668C22.948 2.86671 24.8013 4.72004 24.8013 7.00004ZM3.2013 7.00004C3.2013 4.72004 5.05464 2.86671 7.33463 2.86671H12.668V0.333374H7.33463C3.65464 0.333374 0.667969 3.32004 0.667969 7.00004C0.667969 10.68 3.65464 13.6667 7.33463 13.6667H12.668V11.1334H7.33463C5.05464 11.1334 3.2013 9.28004 3.2013 7.00004ZM23.3346 7.00004H20.668V11H16.668V13.6667H20.668V17.6667H23.3346V13.6667H27.3346V11H23.3346V7.00004Z" fill="black"/>
</svg>
