<svg width="19" height="24" viewBox="0 0 14 18" fill="none" xmlns="http://www.w3.org/2000/svg">
<path fill-rule="evenodd" clip-rule="evenodd" d="M12 5.5H2C1.72386 5.5 1.5 5.72386 1.5 6V16C1.5 16.2761 1.72386 16.5 2 16.5H12C12.2761 16.5 12.5 16.2761 12.5 16V6C12.5 5.72386 12.2761 5.5 12 5.5ZM2 4C0.895431 4 0 4.89543 0 6V16C0 17.1046 0.89543 18 2 18H12C13.1046 18 14 17.1046 14 16V6C14 4.89543 13.1046 4 12 4H2Z" fill="black"/>
<path fill-rule="evenodd" clip-rule="evenodd" d="M7 1.75C5.75736 1.75 4.75 2.75736 4.75 4V8H3.25V4C3.25 1.92893 4.92893 0.25 7 0.25C9.07107 0.25 10.75 1.92893 10.75 4V8H9.25V4C9.25 2.75736 8.24264 1.75 7 1.75Z" fill="black"/>
</svg>
