<svg width="30" height="27" viewBox="0 0 30 27" fill="none" xmlns="http://www.w3.org/2000/svg">
    <path d="M14 18.5L10.825 15.65C9.625 14.5667 8.596 13.6 7.738 12.75C6.87933 11.9 6.171 11.1 5.613 10.35C5.05433 9.6 4.646 8.875 4.388 8.175C4.12933 7.475 4 6.74167 4 5.975C4 4.40833 4.525 3.104 5.575 2.062C6.625 1.02067 7.93333 0.5 9.5 0.5C10.3667 0.5 11.1917 0.683333 11.975 1.05C12.7583 1.41667 13.4333 1.93333 14 2.6C14.5667 1.93333 15.2417 1.41667 16.025 1.05C16.8083 0.683333 17.6333 0.5 18.5 0.5C19.85 0.5 20.9833 0.879 21.9 1.637C22.8167 2.39567 23.4417 3.35 23.775 4.5H21.65C21.35 3.83333 20.9083 3.33333 20.325 3C19.7417 2.66667 19.1333 2.5 18.5 2.5C17.65 2.5 16.9167 2.72933 16.3 3.188C15.6833 3.646 15.1083 4.25 14.575 5H13.425C12.9083 4.25 12.321 3.646 11.663 3.188C11.0043 2.72933 10.2833 2.5 9.5 2.5C8.55 2.5 7.729 2.829 7.037 3.487C6.34567 4.14567 6 4.975 6 5.975C6 6.525 6.11667 7.08333 6.35 7.65C6.58333 8.21667 7 8.871 7.6 9.613C8.2 10.3543 9.01667 11.2207 10.05 12.212C11.0833 13.204 12.4 14.4 14 15.8C14.4333 15.4167 14.9417 14.975 15.525 14.475C16.1083 13.975 16.575 13.5583 16.925 13.225L17.15 13.45L17.637 13.938L18.125 14.425L18.35 14.65C17.9833 14.9833 17.5167 15.3957 16.95 15.887C16.3833 16.379 15.8833 16.8167 15.45 17.2L14 18.5ZM21 14.5V11.5H18V9.5H21V6.5H23V9.5H26V11.5H23V14.5H21Z"
          fill="#828282"/>
</svg>
