<svg width="18" height="21" viewBox="0 0 18 21" fill="none" xmlns="http://www.w3.org/2000/svg">
<path d="M2 20.25C1.45 20.25 0.979 20.0299 0.587 19.5896C0.195667 19.1486 0 18.6188 0 18V13.5H2V18H16V2.25H2V6.75H0V2.25C0 1.63125 0.195667 1.10137 0.587 0.660375C0.979 0.220125 1.45 0 2 0H16C16.55 0 17.021 0.220125 17.413 0.660375C17.8043 1.10137 18 1.63125 18 2.25V18C18 18.6188 17.8043 19.1486 17.413 19.5896C17.021 20.0299 16.55 20.25 16 20.25H2ZM7.5 15.75L6.1 14.1188L8.65 11.25H0V9H8.65L6.1 6.13125L7.5 4.5L12.5 10.125L7.5 15.75Z" fill="#AD0000"/>
</svg>
