<svg width="28" height="28" viewBox="0 0 28 28" fill="none" xmlns="http://www.w3.org/2000/svg">
<path d="M14.0013 0.599976C6.6413 0.599976 0.667969 6.57331 0.667969 13.9333C0.667969 21.2933 6.6413 27.2666 14.0013 27.2666H20.668V24.6H14.0013C8.21463 24.6 3.33464 19.72 3.33464 13.9333C3.33464 8.14664 8.21463 3.26664 14.0013 3.26664C19.788 3.26664 24.668 8.14664 24.668 13.9333V15.84C24.668 16.8933 23.7213 17.9333 22.668 17.9333C21.6146 17.9333 20.668 16.8933 20.668 15.84V13.9333C20.668 10.2533 17.6813 7.26664 14.0013 7.26664C10.3213 7.26664 7.33463 10.2533 7.33463 13.9333C7.33463 17.6133 10.3213 20.6 14.0013 20.6C15.8413 20.6 17.5213 19.8533 18.7213 18.64C19.588 19.8266 21.0813 20.6 22.668 20.6C25.2946 20.6 27.3346 18.4666 27.3346 15.84V13.9333C27.3346 6.57331 21.3613 0.599976 14.0013 0.599976ZM14.0013 17.9333C11.788 17.9333 10.0013 16.1466 10.0013 13.9333C10.0013 11.72 11.788 9.93331 14.0013 9.93331C16.2146 9.93331 18.0013 11.72 18.0013 13.9333C18.0013 16.1466 16.2146 17.9333 14.0013 17.9333Z" fill="black"/>
</svg>
