<svg width="31" height="30" viewBox="0 0 31 30" fill="none" xmlns="http://www.w3.org/2000/svg">
<g clip-path="url(#clip0_308_8320)">
<path d="M27.3431 16.47C27.4068 15.99 27.4546 15.51 27.4546 15C27.4546 14.49 27.4068 14.01 27.3431 13.53L30.7053 11.055C31.0081 10.83 31.0878 10.425 30.8966 10.095L27.7096 4.905C27.5662 4.665 27.2953 4.53 27.0085 4.53C26.9129 4.53 26.8172 4.545 26.7376 4.575L22.7698 6.075C21.9412 5.475 21.0488 4.98 20.0768 4.605L19.4713 0.63C19.4235 0.27 19.0889 0 18.6905 0H12.3166C11.9182 0 11.5836 0.27 11.5357 0.63L10.9302 4.605C9.9582 4.98 9.06585 5.49 8.23724 6.075L4.26947 4.575C4.17386 4.545 4.07825 4.53 3.98264 4.53C3.71175 4.53 3.44086 4.665 3.29744 4.905L0.110479 10.095C-0.0966741 10.425 -0.00106493 10.83 0.301697 11.055L3.66394 13.53C3.60021 14.01 3.5524 14.505 3.5524 15C3.5524 15.495 3.60021 15.99 3.66394 16.47L0.301697 18.945C-0.00106493 19.17 -0.0807393 19.575 0.110479 19.905L3.29744 25.095C3.44086 25.335 3.71175 25.47 3.99858 25.47C4.09419 25.47 4.18979 25.455 4.26947 25.425L8.23724 23.925C9.06585 24.525 9.9582 25.02 10.9302 25.395L11.5357 29.37C11.5836 29.73 11.9182 30 12.3166 30H18.6905C19.0889 30 19.4235 29.73 19.4713 29.37L20.0768 25.395C21.0488 25.02 21.9412 24.51 22.7698 23.925L26.7376 25.425C26.8332 25.455 26.9288 25.47 27.0244 25.47C27.2953 25.47 27.5662 25.335 27.7096 25.095L30.8966 19.905C31.0878 19.575 31.0081 19.17 30.7053 18.945L27.3431 16.47ZM24.188 13.905C24.2517 14.37 24.2677 14.685 24.2677 15C24.2677 15.315 24.2358 15.645 24.188 16.095L23.9649 17.79L25.3831 18.84L27.1041 20.1L25.9886 21.915L23.9649 21.15L22.3077 20.52L20.8736 21.54C20.1884 22.02 19.535 22.38 18.8817 22.635L17.1926 23.28L16.9377 24.975L16.619 27H14.3881L14.0853 24.975L13.8304 23.28L12.1413 22.635C11.4561 22.365 10.8187 22.02 10.1813 21.57L8.73122 20.52L7.04213 21.165L5.0184 21.93L3.90297 20.115L5.62393 18.855L7.04213 17.805L6.81904 16.11C6.77123 15.645 6.73937 15.3 6.73937 15C6.73937 14.7 6.77123 14.355 6.81904 13.905L7.04213 12.21L5.62393 11.16L3.90297 9.9L5.0184 8.085L7.04213 8.85L8.69935 9.48L10.1335 8.46C10.8187 7.98 11.472 7.62 12.1253 7.365L13.8144 6.72L14.0694 5.025L14.3881 3H16.603L16.9058 5.025L17.1607 6.72L18.8498 7.365C19.535 7.635 20.1724 7.98 20.8098 8.43L22.2599 9.48L23.949 8.835L25.9727 8.07L27.0881 9.885L25.3831 11.16L23.9649 12.21L24.188 13.905ZM15.5035 9C11.9819 9 9.12959 11.685 9.12959 15C9.12959 18.315 11.9819 21 15.5035 21C19.0251 21 21.8774 18.315 21.8774 15C21.8774 11.685 19.0251 9 15.5035 9ZM15.5035 18C13.7507 18 12.3166 16.65 12.3166 15C12.3166 13.35 13.7507 12 15.5035 12C17.2563 12 18.6905 13.35 18.6905 15C18.6905 16.65 17.2563 18 15.5035 18Z" fill="black"/>
</g>
<defs>
<clipPath id="clip0_308_8320">
<rect width="31" height="30" fill="white"/>
</clipPath>
</defs>
</svg>
