<svg width="20" height="20" viewBox="0 0 20 20" fill="none" xmlns="http://www.w3.org/2000/svg">
<path d="M17.4372 10.98C17.4772 10.66 17.5072 10.34 17.5072 10C17.5072 9.66 17.4772 9.34 17.4372 9.02L19.5472 7.37C19.7372 7.22 19.7872 6.95 19.6672 6.73L17.6672 3.27C17.5772 3.11 17.4072 3.02 17.2272 3.02C17.1672 3.02 17.1072 3.03 17.0572 3.05L14.5672 4.05C14.0472 3.65 13.4872 3.32 12.8772 3.07L12.4972 0.42C12.4672 0.18 12.2572 0 12.0072 0H8.00716C7.75716 0 7.54716 0.18 7.51716 0.42L7.13716 3.07C6.52716 3.32 5.96716 3.66 5.44716 4.05L2.95716 3.05C2.89716 3.03 2.83716 3.02 2.77716 3.02C2.60716 3.02 2.43716 3.11 2.34716 3.27L0.347164 6.73C0.217164 6.95 0.277164 7.22 0.467164 7.37L2.57716 9.02C2.53716 9.34 2.50716 9.67 2.50716 10C2.50716 10.33 2.53716 10.66 2.57716 10.98L0.467164 12.63C0.277164 12.78 0.227164 13.05 0.347164 13.27L2.34716 16.73C2.43716 16.89 2.60716 16.98 2.78716 16.98C2.84716 16.98 2.90716 16.97 2.95716 16.95L5.44716 15.95C5.96716 16.35 6.52716 16.68 7.13716 16.93L7.51716 19.58C7.54716 19.82 7.75716 20 8.00716 20H12.0072C12.2572 20 12.4672 19.82 12.4972 19.58L12.8772 16.93C13.4872 16.68 14.0472 16.34 14.5672 15.95L17.0572 16.95C17.1172 16.97 17.1772 16.98 17.2372 16.98C17.4072 16.98 17.5772 16.89 17.6672 16.73L19.6672 13.27C19.7872 13.05 19.7372 12.78 19.5472 12.63L17.4372 10.98ZM15.4572 9.27C15.4972 9.58 15.5072 9.79 15.5072 10C15.5072 10.21 15.4872 10.43 15.4572 10.73L15.3172 11.86L16.2072 12.56L17.2872 13.4L16.5872 14.61L15.3172 14.1L14.2772 13.68L13.3772 14.36C12.9472 14.68 12.5372 14.92 12.1272 15.09L11.0672 15.52L10.9072 16.65L10.7072 18H9.30716L9.11716 16.65L8.95716 15.52L7.89716 15.09C7.46716 14.91 7.06716 14.68 6.66716 14.38L5.75716 13.68L4.69716 14.11L3.42716 14.62L2.72716 13.41L3.80716 12.57L4.69716 11.87L4.55716 10.74C4.52716 10.43 4.50716 10.2 4.50716 10C4.50716 9.8 4.52716 9.57 4.55716 9.27L4.69716 8.14L3.80716 7.44L2.72716 6.6L3.42716 5.39L4.69716 5.9L5.73716 6.32L6.63716 5.64C7.06716 5.32 7.47716 5.08 7.88716 4.91L8.94716 4.48L9.10716 3.35L9.30716 2H10.6972L10.8872 3.35L11.0472 4.48L12.1072 4.91C12.5372 5.09 12.9372 5.32 13.3372 5.62L14.2472 6.32L15.3072 5.89L16.5772 5.38L17.2772 6.59L16.2072 7.44L15.3172 8.14L15.4572 9.27ZM10.0072 6C7.79716 6 6.00716 7.79 6.00716 10C6.00716 12.21 7.79716 14 10.0072 14C12.2172 14 14.0072 12.21 14.0072 10C14.0072 7.79 12.2172 6 10.0072 6ZM10.0072 12C8.90716 12 8.00716 11.1 8.00716 10C8.00716 8.9 8.90716 8 10.0072 8C11.1072 8 12.0072 8.9 12.0072 10C12.0072 11.1 11.1072 12 10.0072 12Z" fill="black"/>
</svg>
