<svg width="28" height="24" viewBox="0 0 28 24" fill="none" xmlns="http://www.w3.org/2000/svg">
<path d="M25.4297 0.0156731C24.9865 -0.0313271 24.5048 0.0378814 24.0208 0.229215C23.4208 0.465215 14.0192 4.42009 5.25521 8.10942L2.35938 9.32817C1.23804 9.78284 0.671875 10.5223 0.671875 11.5183C0.671875 12.2156 0.967 13.1615 2.375 13.7188L7.26302 15.6771C7.68569 16.9451 8.6674 19.8893 8.91406 20.6719C9.06073 21.1359 9.43119 22.3048 10.3672 22.5782C10.5592 22.6435 10.7595 22.6771 10.9635 22.6771C11.5542 22.6771 11.9795 22.4022 12.1875 22.2422L15.2943 19.6146L19.0677 23.1042C19.213 23.2522 19.9823 24 21.0156 24C22.305 24 23.283 22.9267 23.487 21.8881C23.5976 21.3187 27.237 3.04946 27.237 3.05213C27.5636 1.5868 26.9763 0.826652 26.599 0.502652C26.2756 0.225986 25.8729 0.0626731 25.4297 0.0156731ZM24.5469 2.89588C24.0442 5.41588 21.304 19.171 20.888 21.1537L15.3724 16.0521L11.6302 19.2214L12.6667 15.1667C12.6667 15.1667 19.8167 7.92919 20.2474 7.50786C20.5941 7.17053 20.6667 7.05228 20.6667 6.93494C20.6667 6.77894 20.5864 6.66671 20.401 6.66671C20.2344 6.66671 20.008 6.82642 19.888 6.90109C18.3636 7.85151 11.8721 11.5497 8.67708 13.3672L4.04167 11.5157L6.29167 10.5704C12.0237 8.15703 22.2322 3.85855 24.5469 2.89588Z" fill="black"/>
</svg>
