<svg width="28" height="28" viewBox="0 0 28 28" fill="none" xmlns="http://www.w3.org/2000/svg">
<path d="M14.0013 0.666626C6.65329 0.666626 0.667969 6.65196 0.667969 14C0.667969 21.348 6.65329 27.3333 14.0013 27.3333C21.3493 27.3333 27.3346 21.348 27.3346 14C27.3346 6.65196 21.3493 0.666626 14.0013 0.666626ZM14.0013 3.33329C19.9081 3.33329 24.668 8.09313 24.668 14C24.668 19.9068 19.9081 24.6666 14.0013 24.6666C8.09447 24.6666 3.33464 19.9068 3.33464 14C3.33464 8.09313 8.09447 3.33329 14.0013 3.33329ZM6.59505 9.33329C6.08705 9.33329 6.0013 9.58225 6.0013 9.84892C6.0013 10.3303 6.40064 12.9286 8.58463 15.9166C10.1673 18.0846 12.2536 19.3333 14.1003 19.3333C15.2189 19.3333 15.3346 19.0481 15.3346 18.6041V16.6224C15.3346 16.0877 15.4578 16 15.8138 16C16.0685 16 16.5846 16.1666 17.5846 17.3333C18.738 18.6786 18.9467 19.3333 19.6081 19.3333H21.3555C21.7608 19.3333 21.9946 19.164 22.0039 18.8333C22.0052 18.7493 21.9928 18.6534 21.9648 18.5494C21.8355 18.1654 21.2439 17.228 20.5039 16.3333C20.0932 15.8373 19.6892 15.346 19.5039 15.0807C19.3772 14.906 19.3293 14.784 19.3346 14.6666C19.34 14.544 19.404 14.4244 19.5013 14.2604C19.484 14.2604 21.7396 11.0953 21.9596 10.0286C21.9903 9.92727 22.0053 9.83263 22.0013 9.74996C21.9906 9.50863 21.8243 9.33329 21.4336 9.33329H19.6888C19.2488 9.33329 19.0444 9.59915 18.9258 9.86715C18.9258 9.86715 17.8393 12.106 16.5846 13.5833C16.178 14.01 15.9713 14 15.7513 14C15.634 14 15.3346 13.8581 15.3346 13.4661V10.0104C15.3346 9.54771 15.221 9.33329 14.8477 9.33329H11.7487C11.4767 9.33329 11.3346 9.54571 11.3346 9.76038C11.3346 10.2044 11.9333 10.3132 12.0013 11.5599V13.9739C12.0013 14.5606 11.901 14.6666 11.681 14.6666C11.0877 14.6666 9.91938 12.6656 9.13672 10.0442C8.96739 9.52823 8.79807 9.33329 8.35807 9.33329H6.59505Z" fill="black"/>
</svg>
