<svg width="23" height="19" viewBox="0 0 23 19" fill="none" xmlns="http://www.w3.org/2000/svg">
<path d="M20.5 0.5H2.5C1.4 0.5 0.5 1.4 0.5 2.5V5.5H2.5V2.5H20.5V16.5H13.5V18.5H20.5C21.6 18.5 22.5 17.6 22.5 16.5V2.5C22.5 1.4 21.6 0.5 20.5 0.5ZM0.5 15.5V18.5H3.5C3.5 16.84 2.16 15.5 0.5 15.5ZM0.5 11.5V13.5C3.26 13.5 5.5 15.74 5.5 18.5H7.5C7.5 14.63 4.37 11.5 0.5 11.5ZM0.5 7.5V9.5C5.47 9.5 9.5 13.53 9.5 18.5H11.5C11.5 12.42 6.57 7.5 0.5 7.5ZM10.5 8.59V10.59L14 12.5L17.5 10.59V8.59L14 10.5L10.5 8.59ZM14 3.5L8.5 6.5L14 9.5L19.5 6.5L14 3.5Z" fill="#1F1F1F"/>
</svg>
