<svg width="20" height="18" viewBox="0 0 20 18" fill="none" xmlns="http://www.w3.org/2000/svg">
<path d="M18.0071 0H2.00708C0.89708 0 0.00708008 0.89 0.00708008 2V14C0.00708008 15.1 0.89708 16 2.00708 16H6.00708V18H14.0071V16H18.0071C19.1071 16 20.0071 15.1 20.0071 14V2C20.0071 0.89 19.1071 0 18.0071 0ZM18.0071 14H2.00708V2H18.0071V14Z" fill="black"/>
<path d="M12.0071 5.25H4.00708V6.75H12.0071V5.25Z" fill="black"/>
<path d="M14.5071 6.75H16.0071V5.25H14.5071V4H13.0071V8H14.5071V6.75Z" fill="black"/>
<path d="M16.0071 9.25H8.00708V10.75H16.0071V9.25Z" fill="black"/>
<path d="M5.50708 12H7.00708V8H5.50708V9.25H4.00708V10.75H5.50708V12Z" fill="black"/>
</svg>
