<svg width="576" height="454" viewBox="0 0 576 454" fill="none" xmlns="http://www.w3.org/2000/svg">
<path d="M15.6733 438.091V423.364L43.7642 379.182H57.1278V398.818H49.4915L34.3551 422.818V423.364H75.8097V438.091H15.6733ZM49.6278 449V433.591L50.0369 427.182V379.182H67.7642V449H49.6278ZM114.17 450.909C107.83 450.886 102.352 449.42 97.7386 446.511C93.125 443.602 89.5682 439.409 87.0682 433.932C84.5682 428.455 83.3295 421.886 83.3523 414.227C83.375 406.545 84.625 400.023 87.1023 394.659C89.6023 389.295 93.1477 385.216 97.7386 382.42C102.352 379.625 107.83 378.227 114.17 378.227C120.511 378.227 125.989 379.636 130.602 382.455C135.216 385.25 138.773 389.33 141.273 394.693C143.773 400.057 145.011 406.568 144.989 414.227C144.989 421.932 143.739 428.523 141.239 434C138.739 439.477 135.182 443.67 130.568 446.58C125.977 449.466 120.511 450.909 114.17 450.909ZM114.17 435.5C117.443 435.5 120.125 433.795 122.216 430.386C124.33 426.955 125.375 421.568 125.352 414.227C125.352 409.432 124.875 405.511 123.92 402.466C122.966 399.42 121.648 397.17 119.966 395.716C118.284 394.239 116.352 393.5 114.17 393.5C110.898 393.5 108.227 395.159 106.159 398.477C104.091 401.795 103.034 407.045 102.989 414.227C102.966 419.114 103.432 423.136 104.386 426.295C105.341 429.432 106.659 431.75 108.341 433.25C110.045 434.75 111.989 435.5 114.17 435.5ZM153.205 438.091V423.364L181.295 379.182H194.659V398.818H187.023L171.886 422.818V423.364H213.341V438.091H153.205ZM187.159 449V433.591L187.568 427.182V379.182H205.295V449H187.159ZM240.281 449V379.182H290.599V394.455H259.236V406.455H288.009V421.727H259.236V433.727H290.463V449H240.281ZM300 449V379.182H330.136C335.318 379.182 339.852 380.125 343.739 382.011C347.625 383.898 350.648 386.614 352.807 390.159C354.966 393.705 356.045 397.955 356.045 402.909C356.045 407.909 354.932 412.125 352.705 415.557C350.5 418.989 347.398 421.58 343.398 423.33C339.42 425.08 334.773 425.955 329.455 425.955H311.455V411.227H325.636C327.864 411.227 329.761 410.955 331.33 410.409C332.92 409.841 334.136 408.943 334.977 407.716C335.841 406.489 336.273 404.886 336.273 402.909C336.273 400.909 335.841 399.284 334.977 398.034C334.136 396.761 332.92 395.83 331.33 395.239C329.761 394.625 327.864 394.318 325.636 394.318H318.955V449H300ZM340.909 416.955L358.364 449H337.773L320.727 416.955H340.909ZM364.125 449V379.182H394.261C399.443 379.182 403.977 380.125 407.864 382.011C411.75 383.898 414.773 386.614 416.932 390.159C419.091 393.705 420.17 397.955 420.17 402.909C420.17 407.909 419.057 412.125 416.83 415.557C414.625 418.989 411.523 421.58 407.523 423.33C403.545 425.08 398.898 425.955 393.58 425.955H375.58V411.227H389.761C391.989 411.227 393.886 410.955 395.455 410.409C397.045 409.841 398.261 408.943 399.102 407.716C399.966 406.489 400.398 404.886 400.398 402.909C400.398 400.909 399.966 399.284 399.102 398.034C398.261 396.761 397.045 395.83 395.455 395.239C393.886 394.625 391.989 394.318 389.761 394.318H383.08V449H364.125ZM405.034 416.955L422.489 449H401.898L384.852 416.955H405.034ZM495.886 414.091C495.886 421.864 494.375 428.42 491.352 433.761C488.33 439.08 484.25 443.114 479.114 445.864C473.977 448.591 468.25 449.955 461.932 449.955C455.568 449.955 449.818 448.58 444.682 445.83C439.568 443.057 435.5 439.011 432.477 433.693C429.477 428.352 427.977 421.818 427.977 414.091C427.977 406.318 429.477 399.773 432.477 394.455C435.5 389.114 439.568 385.08 444.682 382.352C449.818 379.602 455.568 378.227 461.932 378.227C468.25 378.227 473.977 379.602 479.114 382.352C484.25 385.08 488.33 389.114 491.352 394.455C494.375 399.773 495.886 406.318 495.886 414.091ZM476.386 414.091C476.386 409.909 475.83 406.386 474.716 403.523C473.625 400.636 472 398.455 469.841 396.977C467.705 395.477 465.068 394.727 461.932 394.727C458.795 394.727 456.148 395.477 453.989 396.977C451.852 398.455 450.227 400.636 449.114 403.523C448.023 406.386 447.477 409.909 447.477 414.091C447.477 418.273 448.023 421.807 449.114 424.693C450.227 427.557 451.852 429.739 453.989 431.239C456.148 432.716 458.795 433.455 461.932 433.455C465.068 433.455 467.705 432.716 469.841 431.239C472 429.739 473.625 427.557 474.716 424.693C475.83 421.807 476.386 418.273 476.386 414.091ZM504.656 449V379.182H534.793C539.974 379.182 544.509 380.125 548.395 382.011C552.281 383.898 555.304 386.614 557.463 390.159C559.622 393.705 560.702 397.955 560.702 402.909C560.702 407.909 559.588 412.125 557.361 415.557C555.156 418.989 552.054 421.58 548.054 423.33C544.077 425.08 539.429 425.955 534.111 425.955H516.111V411.227H530.293C532.52 411.227 534.418 410.955 535.986 410.409C537.577 409.841 538.793 408.943 539.634 407.716C540.497 406.489 540.929 404.886 540.929 402.909C540.929 400.909 540.497 399.284 539.634 398.034C538.793 396.761 537.577 395.83 535.986 395.239C534.418 394.625 532.52 394.318 530.293 394.318H523.611V449H504.656ZM545.565 416.955L563.02 449H542.429L525.384 416.955H545.565Z" fill="#8D8D8D"/>
<path d="M406.896 42.419C407.034 41.99 407.069 41.8668 407.104 41.7437C409.066 34.8676 409.039 34.9248 415.309 37.9587C432.253 46.1576 449.183 54.3893 466.217 62.3937C469.442 63.9094 469.691 65.2564 467.851 68.0637C459.608 80.6368 447.139 85.7572 433.391 83.4708C419.382 81.141 408.802 69.7798 406.458 56.0532C405.688 51.5397 405.926 47.148 406.896 42.419Z" fill="black"/>
<path d="M324.089 89.7642C326.041 86.749 327.76 83.9122 329.792 81.3044C331.987 78.4882 335.078 76.8264 338.662 76.2124C341.012 75.8097 343.367 75.7994 345.129 77.826C346.861 79.8173 345.62 81.6322 344.752 83.4392C342.24 88.667 342.681 94.0786 344.073 99.3844C345.267 103.94 344.546 107.746 341.428 111.366C339.967 113.064 338.811 113.569 336.885 112.257C334.652 110.734 332.273 109.412 330.041 107.887C323.482 103.406 321.524 97.542 324.089 89.7642Z" fill="black"/>
<path d="M340.313 10.227C346.782 5.38559 349.157 5.57821 354.707 11.2082C355.16 11.6667 355.647 12.0933 356.064 12.5823C361.621 19.0979 366.39 17.4066 371.744 10.7282C373.726 8.2566 375.618 5.71104 377.704 3C379.616 9.77455 371.986 19.6116 362.873 22.7252C352.117 26.4005 340.591 21.8648 337 12.5128C337.645 11.2526 339.173 11.2735 340.313 10.227Z" fill="black"/>
<path d="M96 171.746C96.5977 159.533 101.993 150.887 113.026 145.999C114.319 145.426 115.665 144.935 116.875 144.218C122.445 140.921 122.814 140.064 121.731 133.688C119.717 121.827 125.253 110.215 136.08 103.506C140.6 100.706 145.565 98.8627 150.442 96.8518C156.087 94.5239 161.282 91.4398 166.205 87.905C172.397 83.4584 176.511 77.5685 178.08 70.008C179.377 63.754 180.788 57.5239 183.105 51.8138C182.671 51.3437 182.595 51.1823 182.5 51.1693C170.95 49.6076 168.315 41.6036 169.134 29.4891C169.862 18.7145 175.829 11.8224 184.894 6.88851C191.372 3.3627 197.791 -0.104807 205.509 0.00242446C215.731 0.144444 224.405 8.38344 224.874 19.2446C225.105 24.5945 225.389 24.3367 231.068 23.9243C244.534 22.9463 257.59 24.7366 270.048 29.8289C286.664 36.6208 298.228 48.0151 301.921 66.2111C303.436 73.6754 302.799 80.7561 298.856 87.4049C292.338 98.395 290.236 110.375 290.736 122.977C290.925 127.769 292.018 132.369 293.142 136.982C293.547 138.647 294.401 139.891 296.308 139.704C312.09 138.156 323.407 147.227 334.773 155.946C348.166 166.221 361.187 176.963 373.319 188.715C375.887 191.203 377.923 190.772 380.409 188.464C373.173 180.838 376.341 173.643 381.317 166.612C382.875 164.411 383 161.79 383.856 159.39C384.915 156.416 386.548 154.237 389.647 153.161C393.156 151.943 394.148 148.922 392.353 145.579C391.567 144.114 390.662 142.674 390.137 141.113C388.414 135.993 390.597 131.59 395.656 129.71C398.38 128.697 401.11 127.699 403.85 126.73C405.36 126.197 406.053 125.239 405.156 123.799C401.317 117.633 397.205 111.645 389.3 110.356C385.492 109.734 381.642 109.402 377.94 108.225C377.45 108.069 376.926 108.015 376.441 107.846C374.449 107.149 371.272 107.022 371.708 104.323C372.136 101.675 374.708 99.6662 377.606 99.528C381.759 99.3302 385.697 98.3376 389.66 97.3093C394.401 96.0793 402.855 100.139 405.116 104.742C405.512 105.549 405.772 106.42 406.139 107.242C409.177 114.045 410.012 114.413 417.262 112.297C421.639 111.019 425.679 111.362 429.043 114.83C429.683 115.491 430.705 115.626 430.23 117.202C429.764 118.748 431.499 118.992 432.649 119.36C435.256 113.823 434.464 109.388 429.3 106.093C426.365 104.22 426.282 100.857 425.156 98.0466C424.832 97.2362 425.204 96.4817 425.798 95.9557C428.732 93.3574 430.679 89.9854 432.948 86.877C434.206 85.1535 435.405 84.9062 437.134 86.1059C442.953 90.1435 448.954 93.9366 454.607 98.1914C459.716 102.037 460.404 109.077 456.487 114.855C452.954 120.068 449.169 125.111 445.524 130.249C444.791 131.282 443.921 132.326 444.628 133.765C448.541 141.735 447.448 150.054 446.225 158.341C445.288 164.697 443.665 170.917 442.163 177.162C440.044 185.972 435.092 192.715 427.831 197.989C420.85 203.059 413.963 208.257 407.048 213.418C405.51 214.567 404.03 215.793 402.173 217.261C406.367 222.342 410.518 227.191 414.468 232.196C422.223 242.023 429.51 252.188 433.951 264.003C439.107 277.718 438.763 291.569 433.088 304.969C425.262 323.446 404.377 331.995 383.378 325.883C373.946 323.137 365.671 318.254 357.967 312.306C355.656 310.522 353.391 308.679 350.9 307.039C355.02 314.755 359.704 322.108 362.804 330.276C364.495 334.73 365.866 339.261 366.845 343.928C367.591 347.487 366.27 349.91 363.266 351.661C358.252 354.583 352.679 355.772 347.04 356.319C312.413 359.683 277.763 362.744 242.905 361.839C231.961 361.556 220.998 361.412 210.275 358.822C208.16 358.311 206.065 357.587 204.078 356.699C194.764 352.537 191.515 345.62 194.151 335.726C195.945 328.995 198.895 322.688 201.504 316.262C202.366 314.138 202.374 312.659 200.905 310.687C183.258 287.002 167.294 262.281 155.011 235.341C154.231 233.63 153.309 232.306 151.326 231.754C136.873 227.729 126.279 218.401 117.324 206.888C115.728 204.836 113.899 203.124 111.833 201.531C102.19 194.096 95.9817 184.75 96 171.746ZM232.704 230.671C236.664 245.561 240.657 260.443 244.556 275.349C245.399 278.572 246.019 281.869 245.865 285.245C245.809 286.471 245.635 287.663 244.044 287.667C242.381 287.672 242.416 286.375 242.301 285.205C242.176 283.931 242.04 282.654 241.833 281.39C239.561 267.536 234.831 254.304 231.466 240.726C231.25 239.855 231.056 238.947 230.012 238.658C229.744 238.703 229.461 238.681 229.251 238.794C212.576 247.764 195.92 256.772 179.22 265.696C176.651 267.069 176.938 268.542 178.229 270.647C184.555 280.963 191.194 291.078 198.17 300.961C207.327 313.934 218.267 325.114 232.265 332.943C243.529 339.242 255.408 342.754 268.562 340.549C282.513 338.211 295.36 326.792 297.851 314.201C299.661 305.056 298.553 296.007 296.79 287.043C291.46 259.949 280.682 234.81 268.675 210.13C268.173 209.097 267.766 207.782 266.495 207.593C262.27 206.965 263.929 204.881 265.114 202.736C268.98 195.736 267.246 183.825 261.571 178.249C261.138 177.823 260.517 177.539 259.933 177.323C257.74 176.51 254.896 175.803 255.663 172.856C256.303 170.393 255.148 168.397 255.249 166.189C255.268 165.763 256.08 165.174 256.632 165.008C258.531 164.436 260.684 164.414 262.103 165.67C263.719 167.1 261.773 168.41 261.066 169.641C259.208 172.874 259.634 173.72 263.289 173.794C267.561 173.881 271.096 171.579 272.689 167.673C274.182 164.01 273.161 156.397 270.969 154.381C269.944 153.438 268.892 153.68 267.726 153.948C263.335 154.956 258.922 155.867 254.535 156.887C249.143 158.142 243.768 159.465 238.388 160.769C237.073 161.087 235.641 161.377 235.21 159.675C234.784 157.993 236.255 157.533 237.477 157.103C238.324 156.805 239.211 156.611 240.089 156.409C248.62 154.446 257.153 152.49 265.686 150.535C269.593 149.64 270.581 147.998 269.381 144.216C268.337 140.927 265.999 139.163 262.603 138.771C259.926 138.462 257.515 139.389 255.182 140.525C248.927 143.572 242.693 146.663 236.441 149.715C233.778 151.015 231.093 152.269 228.414 153.535C227.347 154.039 226.371 153.954 225.748 152.857C225.08 151.68 225.804 150.879 226.708 150.292C227.568 149.733 228.506 149.284 229.438 148.849C240.14 143.858 250.296 137.675 261.852 134.249C261.742 133.674 261.751 133.142 261.542 132.716C257.905 125.311 250.513 123.483 243.869 128.573C236.999 133.835 231.144 140.213 225.03 146.297C224.302 147.021 223.585 147.777 222.756 148.37C221.973 148.929 221.018 148.985 220.279 148.248C219.507 147.476 219.682 146.538 220.315 145.805C221.575 144.344 222.817 142.833 224.272 141.58C231.326 135.51 234.274 127.509 235.338 118.596C235.467 117.52 235.577 116.428 236.945 116.4C238.192 116.374 238.598 117.317 238.916 118.393C239.585 120.659 239.739 123.229 242.055 124.643C244.644 123.506 247.078 122.438 249.638 121.314C248.746 117.402 247.451 113.802 245.211 110.613C240.06 103.28 232.285 103.119 227.087 110.432C220.591 119.572 216.77 129.918 214.062 140.719C213.33 143.64 213.112 146.564 213.659 149.506C218.708 176.647 225.329 203.423 232.704 230.671ZM431.85 297.573C434.912 284.393 434.32 271.599 427.995 259.339C424.444 252.457 420.315 245.95 415.689 239.754C410.546 232.866 405.21 226.134 399.284 220.154C397.796 220.258 397.19 221.174 396.426 221.829C392.806 224.929 389.186 228.027 386.191 231.77C385.359 232.809 384.271 233.906 382.96 232.81C381.481 231.573 382.434 230.284 383.461 229.181C383.987 228.616 384.504 228.041 385.031 227.477C392.107 219.917 400.268 213.643 408.633 207.603C415.837 202.402 423.173 197.37 429.804 191.421C431.264 190.111 432.283 189.047 431.353 186.609C430.426 184.177 430.655 181.332 430.913 178.6C432.818 158.409 422.295 141.356 403.358 133.744C400.158 132.458 396.997 132.086 394.477 134.941C391.823 137.948 393.563 140.922 395.427 143.33C399.446 148.521 403.815 153.563 409.973 156.278C415.206 158.585 418.584 162.203 420.209 167.579C422.216 174.219 424.239 180.853 426.202 187.506C426.619 188.92 427.544 190.804 425.45 191.48C423.237 192.195 423.095 189.988 422.681 188.644C420.786 182.507 418.941 176.352 417.186 170.174C415.587 164.546 412.389 160.76 406.442 159.233C402.309 158.171 398.165 157.37 393.955 156.804C389.518 156.207 387.776 157.674 387.35 162.558C393.561 161.534 398.625 163.62 402.09 168.738C405.854 174.299 410.067 179.457 414.557 184.431C416.006 186.037 417.108 187.979 418.214 189.858C418.902 191.027 419.951 192.563 418.28 193.6C416.542 194.68 415.786 192.987 415.075 191.817C410.317 183.985 403.656 177.628 398.288 170.237C393.349 163.438 385.715 164.789 381.951 172.395C380.995 174.328 380.302 176.474 379.949 178.598C379.432 181.718 381.438 183.907 383.436 185.97C384.968 187.552 386.275 186.055 387.626 185.581C389.118 185.057 390.963 183.477 391.921 185.668C392.859 187.815 390.42 188.251 389.053 189.01C387.592 189.82 386.028 190.445 384.525 191.182C376.313 195.207 368.032 199.1 359.919 203.314C352.024 207.416 347.802 214.066 348.215 223.023C348.486 228.91 349.691 234.707 351.581 240.36C356.686 255.631 363.779 270.085 369.83 284.966C370.169 285.799 370.569 286.61 370.879 287.454C371.306 288.618 371.453 289.822 370.058 290.409C368.824 290.927 368.164 289.986 367.64 289.068C367.259 288.401 366.958 287.686 366.655 286.978C362.606 277.524 358.608 268.047 354.505 258.616C350.414 249.211 346.925 239.609 344.944 229.462C342.068 230.054 342.522 232.25 342.208 233.833C340.825 240.805 339.434 247.81 334.302 253.167C332.301 255.255 332.152 257.244 332.802 259.77C334.4 265.984 335.937 272.216 337.372 278.47C338.959 285.387 340.934 291.832 346.496 297.057C357.558 307.448 368.918 317.121 383.637 322.098C402.983 328.638 426.043 319.555 431.85 297.573ZM282.246 67.7525C268.818 69.0006 265.924 82.6993 268.115 92.6959C268.425 94.1062 270.076 95.78 267.942 96.6278C265.532 97.5852 264.878 95.2955 264.419 93.6144C263.422 89.9606 263.83 86.1851 264.053 82.4863C264.547 74.274 270.412 66.9661 277.842 64.579C279.797 63.951 281.997 64.783 283.779 63.4478C284.161 61.8334 283.206 60.6956 282.587 59.4635C278.273 50.8787 270.082 47.6531 261.818 44.531C260.808 44.1492 260.098 44.5049 259.533 45.3813C255.646 51.4118 251.423 57.2062 246.807 62.733C248.428 64.6283 250.651 64.8676 252.275 66.0711C253.631 67.0749 256.215 67.7585 255.042 69.963C253.648 72.5817 252.06 70.0861 250.604 69.4376C249.078 68.7576 247.57 68.0356 246.025 67.4004C244.306 66.6931 242.824 66.9887 241.472 68.385C236.266 73.7613 230.581 78.5962 224.582 83.0728C223.784 83.6677 222.723 84.2577 222.906 85.4739C223.075 86.6024 223.732 87.7871 222.286 88.4993C220.805 89.2289 219.915 88.0862 218.91 87.3018C214.792 84.0869 212.616 83.9059 208.833 86.4203C204.92 89.0212 203.262 93.2597 204.524 97.4339C206.245 103.121 210.429 105.713 218.089 105.886C219.429 105.916 221.331 105.392 221.566 107.337C221.839 109.606 219.598 109.804 218.3 109.565C213.162 108.621 212.186 112.153 210.79 115.715C207.271 124.693 205.414 134.24 201.254 143.002C200.231 145.157 199.061 146.331 196.502 146.724C185.516 148.409 174.783 151.042 165.138 156.886C153.15 164.149 138.654 174.528 137.562 189.01C136.846 198.501 145.246 207.175 148.217 216.122C149.987 221.452 150.079 221.421 155.579 220.17C164.794 218.072 174.431 222.78 178.309 231.435C179.617 234.356 179.559 237.669 180.755 240.705C182.921 246.203 185.15 247.078 190.317 244.024C193.1 242.379 194.785 240.246 194.566 236.853C194.426 234.675 202.571 245.695 202.383 243.523L184.462 249.311C184.462 249.311 138.863 216.988 139.087 214.578L137.562 189.01C135.114 185.653 149.926 160.592 151.326 156.278C152.559 152.479 174.856 145.981 170.848 146.724C167.471 147.349 191.583 147.404 189.002 145.579C185.823 143.331 210.79 153.532 210.79 153.532L209.628 175.213C212.142 174.498 188.24 157.513 187.131 154.754C186.851 154.058 191.174 155.805 192.126 154.754C195.605 155.128 198.959 156.749 202.345 158.124C203.868 158.742 204.002 160.081 202.553 161.12C199.925 163.005 201.37 164.676 202.848 166.201C204.627 168.037 207.243 168.035 208.108 165.983C209.379 162.969 209.01 159.543 208.108 155.946C206.11 147.972 209.405 140.708 212.191 132.996C215.425 124.041 218.489 114.942 224.564 107.419C231.408 98.9447 241.568 99.3731 248.14 108.119C250.413 111.144 251.685 114.66 252.856 118.208C254.396 122.874 257.503 124.672 262.28 123.451C270.846 121.261 277.276 116.242 281.638 108.587C285.737 101.393 288.62 78.6573 286.739 70.5763C286.175 68.1517 285.202 67.237 282.246 67.7525ZM438.11 177.265C440.25 169.481 441.754 161.592 443.029 153.604C445.585 137.6 439.733 129.561 424.976 119.413C423.023 118.07 420.751 118.312 418.803 119.705C416.733 121.185 416.554 123.369 417.133 125.598C417.688 127.734 418.847 129.626 420.277 131.29C422.621 134.016 425.049 136.669 427.479 139.319C430.156 142.237 431.678 145.456 430.355 149.485C429.876 150.943 430.262 152.243 430.971 153.532C433.896 158.849 434.894 164.58 434.753 170.594C434.646 175.112 434.732 179.635 434.732 185.089C436.692 182.283 437.198 180.017 438.11 177.265ZM105.61 157.648C105.609 157.295 105.607 156.942 105.606 156.589C105.381 156.677 105.069 156.698 104.945 156.861C100.521 162.658 98.7651 169.191 99.906 176.377C100.855 182.354 101.964 184.581 104.962 187.054C101.686 176.975 101.254 167.442 105.61 157.648ZM280.999 147.929C282.204 146.138 284.295 144.822 284.436 141.973C281.755 142.529 279.475 142.892 277.263 143.499C275.876 143.88 273.812 143.856 273.861 145.96C273.916 148.285 272.083 151.155 275.645 152.914C277.576 151.761 279.129 150.071 280.999 147.929ZM126.507 121.302C125.121 125.181 124.385 129.086 126.004 133.46C127.894 127.776 127.029 122.026 128.546 116.612C127.925 117.989 127.304 119.365 126.507 121.302ZM334.269 193.381C332.332 192.849 330.927 191.351 329.121 190.478C332.35 194.443 335.145 198.626 337.965 202.843C336.721 199.803 337.315 196.18 334.269 193.381Z" fill="black"/>
<path d="M219.867 106.943C216.899 105.386 214.156 104.01 211.467 102.546C210.412 101.971 209.543 101.08 210.265 99.839C211.052 98.4866 212.272 99.0548 213.302 99.5723C216.271 101.064 219.23 102.576 222.141 104.164C223.254 104.772 224.562 105.629 223.744 107.047C222.724 108.812 221.344 107.732 219.867 106.943Z" fill="black"/>
<path d="M263.319 116C262.048 112.917 264.875 112.258 266.56 111.091C268.543 109.719 270.99 109.239 273.45 109.016C274.564 108.915 275.495 109.283 275.908 110.324C276.159 110.955 275.876 111.762 275.297 111.811C270.886 112.191 267.808 115.541 263.319 116Z" fill="black"/>
<path d="M244.157 90.9911C241.166 91.1345 240.766 89.515 241.096 87.7795C241.435 85.9971 241.423 83.8624 243.985 83.127C245.422 82.7147 246.471 83.3517 247.227 84.3811C248.619 86.2757 247.988 87.9973 246.471 89.5421C245.931 90.0926 245.141 90.452 244.157 90.9911Z" fill="black"/>
<path d="M277.266 88.8389C276.187 90.3189 275.116 91.4246 273.428 90.8414C272.211 90.4211 271.885 89.2226 272.034 88.0731C272.267 86.2689 272.219 84.2655 274.229 83.2584C275.26 82.742 276.188 83.0417 276.928 83.7835C278.362 85.2212 278.235 86.8777 277.266 88.8389Z" fill="black"/>
</svg>
