<?xml version="1.0" standalone="no"?>
<!DOCTYPE svg PUBLIC "-//W3C//DTD SVG 20010904//EN"
 "http://www.w3.org/TR/2001/REC-SVG-20010904/DTD/svg10.dtd">
<svg version="1.0" xmlns="http://www.w3.org/2000/svg"
 width="100.000000pt" height="100.000000pt" viewBox="0 0 100.000000 100.000000"
 preserveAspectRatio="xMidYMid meet">

<g transform="translate(0.000000,100.000000) scale(0.100000,-0.100000)"
fill="#000000" stroke="none">
<path d="M386 944 c-171 -41 -308 -192 -338 -371 -41 -246 130 -483 379 -525
144 -24 291 23 391 125 70 70 108 136 128 224 18 80 16 118 -5 118 -10 0 -18
-22 -27 -73 -32 -188 -164 -323 -348 -355 -129 -22 -267 23 -362 117 -162 163
-162 429 0 592 159 158 409 163 582 11 l48 -42 -85 -5 c-66 -4 -84 -8 -84 -20
0 -12 21 -16 118 -18 l118 -3 -3 118 c-2 97 -6 118 -18 118 -12 0 -16 -17 -18
-83 l-3 -83 -54 50 c-117 107 -262 143 -419 105z"/>
<path d="M450 727 c-35 -18 -70 -74 -70 -113 0 -26 -4 -34 -18 -34 -36 0 -42
-20 -42 -140 0 -77 4 -120 12 -128 8 -8 60 -12 168 -12 108 0 160 4 168 12 17
17 17 239 0 256 -8 8 -52 12 -130 12 l-118 0 0 25 c0 33 25 81 45 89 45 17 95
-7 110 -54 7 -22 45 -28 45 -6 0 22 -44 80 -70 93 -32 16 -68 16 -100 0z m190
-287 l0 -100 -140 0 -140 0 0 100 0 100 140 0 140 0 0 -100z"/>
<path d="M477 466 c-9 -22 8 -71 23 -71 15 0 32 49 23 71 -3 8 -13 14 -23 14
-10 0 -20 -6 -23 -14z"/>
</g>
</svg>
