<svg width="25" height="24" viewBox="0 0 25 24" fill="none" xmlns="http://www.w3.org/2000/svg">
<path d="M21.7294 8.76242L21.7097 8.976L21.8509 9.13746L24.3358 11.9788L21.8509 14.8201L21.7097 14.9815L21.7294 15.1951L22.0755 18.9519L18.4006 19.7866L18.1908 19.8343L18.0812 20.0193L16.1573 23.2665L12.6973 21.7807L12.4993 21.6957L12.3016 21.7812L8.84209 23.2769L6.9188 20.0307L6.80916 19.8456L6.59939 19.798L2.92436 18.9632L3.27063 15.195L3.29025 14.9815L3.1491 14.8201L0.663722 11.9782L3.14968 9.12543L3.2902 8.96417L3.27063 8.75118L2.92446 4.98409L6.5981 4.15981L6.80876 4.11254L6.9188 3.9268L8.84265 0.679668L12.3027 2.16546L12.5 2.25018L12.6973 2.16546L16.1568 0.679909L18.0808 3.93757L18.1904 4.12314L18.4006 4.17088L22.0755 5.00563L21.7294 8.76242ZM9.97553 17.6955L10.3296 18.0504L10.6836 17.6955L19.0131 9.34319L19.3657 8.98964L19.0126 8.63656L17.3308 6.95475L16.9767 6.60059L16.6231 6.95535L10.3297 13.2703L8.04749 10.9782L7.69394 10.6232L7.33963 10.9775L5.65781 12.6593L5.30472 13.0124L5.65735 13.3659L9.97553 17.6955Z" fill="white" stroke="black"/>
</svg>
