<svg width="25" height="24" viewBox="0 0 25 24" fill="none" xmlns="http://www.w3.org/2000/svg">
<path d="M18.2855 19.2347L18.6391 19.5882L18.9926 19.2347L23.3033 14.924C23.4551 14.7722 23.6074 14.7153 23.7842 14.7205C23.9695 14.7267 24.132 14.7933 24.2884 14.9467C24.4267 15.1007 24.4932 15.2681 24.4997 15.4666C24.5048 15.6433 24.4479 15.7955 24.2962 15.9472L19.1355 21.1079C18.9838 21.2596 18.8319 21.3159 18.6553 21.3102L18.6541 21.3102C18.4658 21.3045 18.3014 21.2362 18.1426 21.0775L15.5623 18.4972C15.4359 18.3708 15.3663 18.2164 15.3601 18.0008L15.36 17.9996C15.354 17.8086 15.4139 17.6528 15.5623 17.5043C15.682 17.3846 15.8338 17.3168 16.0588 17.3168C16.2837 17.3168 16.4355 17.3846 16.5552 17.5043L18.2855 19.2347ZM4.85709 19.3829H4.64998L4.50354 19.5293L1.71071 22.3222C1.57373 22.4591 1.45337 22.5175 1.34996 22.5377C1.24687 22.5578 1.11523 22.5487 0.940275 22.4736L0.939913 22.4735C0.765395 22.3988 0.664755 22.3086 0.604402 22.2162C0.543735 22.1233 0.5 21.9917 0.5 21.7954V2.88307C0.5 2.34901 0.684481 1.90392 1.06755 1.52086C1.44962 1.13879 1.89423 0.954529 2.42854 0.954529H21.8569C22.3912 0.954529 22.8363 1.13877 23.2193 1.52103C23.6013 1.90393 23.7854 2.34896 23.7854 2.88307V10.883H14.5713C13.7699 10.883 13.0715 11.1739 12.5032 11.7422C11.9342 12.3111 11.6427 13.0099 11.6427 13.8115V19.3829H4.85709Z" fill="white" stroke="black"/>
</svg>
