<svg width="25" height="21" viewBox="0 0 25 21" fill="none" xmlns="http://www.w3.org/2000/svg">
<path d="M4.59948 13.5651L4.59962 13.5652C5.56751 14.5241 6.73071 15.617 8.09014 16.8442C8.09034 16.8444 8.09053 16.8446 8.09073 16.8448L11.3638 19.7828L12.675 18.6073C12.6754 18.6069 12.6758 18.6066 12.6763 18.6062C13.0962 18.2244 13.5957 17.7821 14.1743 17.2794C14.5531 16.9503 14.8844 16.6604 15.1684 16.4097C14.5892 15.8195 14.1251 15.1378 13.7772 14.3671C13.3497 13.4208 13.1364 12.418 13.1364 11.3636C13.1364 9.31895 13.8609 7.5666 15.3011 6.13616L15.3012 6.13606C16.7405 4.70724 18.4963 3.98864 20.5398 3.98864C20.896 3.98864 21.2592 4.0251 21.629 4.09659L21.6301 4.09679C21.6941 4.10931 21.758 4.12289 21.8219 4.13751C21.4997 3.29015 20.96 2.5234 20.1914 1.83496C19.2041 0.950671 17.9775 0.5 16.4773 0.5C15.5638 0.5 14.6973 0.688123 13.8729 1.06484C13.0503 1.44149 12.342 1.97901 11.7446 2.68178L11.3636 3.12998L10.9827 2.68178C10.3854 1.9791 9.67715 1.44163 8.85467 1.06499C8.03017 0.688172 7.16359 0.5 6.25 0.5C4.59296 0.5 3.23549 1.04546 2.14197 2.1299L4.59948 13.5651ZM4.59948 13.5651C3.63673 12.6121 2.84958 11.722 2.23411 10.8947L2.23394 10.8945M4.59948 13.5651L2.23394 10.8945M2.23394 10.8945C1.62081 10.0714 1.18309 9.28946 0.910058 8.54868L0.909913 8.54828M2.23394 10.8945L0.909913 8.54828M0.909913 8.54828C0.637037 7.80983 0.5 7.0353 0.5 6.22159M0.909913 8.54828L0.5 6.22159M0.5 6.22159C0.5 4.56586 1.04938 3.21422 2.14186 2.13002L0.5 6.22159ZM21.0909 12.5V15.4091H19.8182V12.5V12H19.3182H16.4091V10.7273H19.3182H19.8182V10.2273V7.31818H21.0909V10.2273V10.7273H21.5909H24.5V12H21.5909H21.0909V12.5Z" fill="white" stroke="black"/>
</svg>
