<svg width="24" height="24" viewBox="0 0 24 24" fill="none" xmlns="http://www.w3.org/2000/svg">
<path d="M18.7929 6.71782C19.1834 6.3273 19.1834 5.69413 18.7929 5.30361L18.6964 5.20711C18.3059 4.81658 17.6727 4.81658 17.2822 5.20711L12 10.4893L6.71782 5.20711C6.3273 4.81658 5.69413 4.81658 5.30361 5.20711L5.20711 5.30361C4.81658 5.69413 4.81658 6.3273 5.20711 6.71782L10.4893 12L5.20711 17.2822C4.81658 17.6727 4.81658 18.3059 5.20711 18.6964L5.30361 18.7929C5.69413 19.1834 6.3273 19.1834 6.71782 18.7929L12 13.5107L17.2822 18.7929C17.6727 19.1834 18.3059 19.1834 18.6964 18.7929L18.7929 18.6964C19.1834 18.3059 19.1834 17.6727 18.7929 17.2822L13.5107 12L18.7929 6.71782Z" fill="white"/>
</svg>
