<svg width="24" height="24" viewBox="0 0 24 24" fill="none" xmlns="http://www.w3.org/2000/svg">
<path d="M8.42 10.6092C8.61501 10.4142 8.84653 10.2595 9.10132 10.154C9.35612 10.0485 9.62921 9.99414 9.905 9.99414C10.1808 9.99414 10.4539 10.0485 10.7087 10.154C10.9635 10.2595 11.195 10.4142 11.39 10.6092C11.585 10.8043 11.7397 11.0358 11.8452 11.2906C11.9508 11.5454 12.0051 11.8185 12.0051 12.0942C12.0051 12.37 11.9508 12.6431 11.8452 12.8979C11.7397 13.1527 11.585 13.3842 11.39 13.5792L5.95 18.9992L2 19.9992L2.99 16.0492L8.42 10.6092Z" stroke="black" stroke-width="2" stroke-linecap="round" stroke-linejoin="round"/>
<path d="M2 11.5V5C2 3.9 2.9 3 4 3H7.93C8.25941 3.0017 8.58331 3.08475 8.8729 3.24176C9.1625 3.39877 9.40882 3.62488 9.59 3.9L10.41 5.1C10.5912 5.37512 10.8375 5.60123 11.1271 5.75824C11.4167 5.91525 11.7406 5.9983 12.07 6H20C20.5304 6 21.0391 6.21071 21.4142 6.58579C21.7893 6.96086 22 7.46957 22 8V18C22 18.5304 21.7893 19.0391 21.4142 19.4142C21.0391 19.7893 20.5304 20 20 20H10.5" stroke="black" stroke-width="2" stroke-linecap="round" stroke-linejoin="round"/>
</svg>
