<svg width="24" height="25" viewBox="0 0 24 25" fill="none" xmlns="http://www.w3.org/2000/svg">
<path d="M9 17.5H7C5.67392 17.5 4.40215 16.9732 3.46447 16.0355C2.52678 15.0979 2 13.8261 2 12.5C2 11.1739 2.52678 9.90215 3.46447 8.96447C4.40215 8.02678 5.67392 7.5 7 7.5H9" stroke="black" stroke-width="2" stroke-linecap="round" stroke-linejoin="round"/>
<path d="M15 7.5H17C18.3261 7.5 19.5979 8.02678 20.5355 8.96447C21.4732 9.90215 22 11.1739 22 12.5C22 13.8261 21.4732 15.0979 20.5355 16.0355C19.5979 16.9732 18.3261 17.5 17 17.5H15" stroke="black" stroke-width="2" stroke-linecap="round" stroke-linejoin="round"/>
<path d="M8 12.5H16" stroke="black" stroke-width="2" stroke-linecap="round" stroke-linejoin="round"/>
</svg>
