<svg width="24" height="24" viewBox="0 0 24 24" fill="none" xmlns="http://www.w3.org/2000/svg">
<path d="M8 22C8.55228 22 9 21.5523 9 21C9 20.4477 8.55228 20 8 20C7.44772 20 7 20.4477 7 21C7 21.5523 7.44772 22 8 22Z" stroke="black" stroke-width="2" stroke-linecap="round" stroke-linejoin="round"/>
<path d="M19 22C19.5523 22 20 21.5523 20 21C20 20.4477 19.5523 20 19 20C18.4477 20 18 20.4477 18 21C18 21.5523 18.4477 22 19 22Z" stroke="black" stroke-width="2" stroke-linecap="round" stroke-linejoin="round"/>
<path d="M2.05078 2.05078H4.05078L6.71078 14.4708C6.80836 14.9256 7.06145 15.3323 7.42649 15.6206C7.79153 15.909 8.24569 16.0611 8.71078 16.0508H18.4908C18.946 16.05 19.3873 15.8941 19.7418 15.6086C20.0964 15.3232 20.3429 14.9253 20.4408 14.4808L22.0908 7.05078H5.12078" stroke="black" stroke-width="2" stroke-linecap="round" stroke-linejoin="round"/>
</svg>
