<svg width="24" height="25" viewBox="0 0 24 25" fill="none" xmlns="http://www.w3.org/2000/svg">
<g clip-path="url(#clip0_243_5173)">
<path d="M19 3.57898H5C3.9 3.57898 3 4.47898 3 5.57898V19.579C3 20.679 3.9 21.579 5 21.579H19C20.1 21.579 21 20.679 21 19.579V5.57898C21 4.47898 20.1 3.57898 19 3.57898ZM19 19.579H5V5.57898H19V19.579Z" fill="black"/>
<path d="M9 12.579H7V17.579H9V12.579Z" fill="black"/>
<path d="M17 7.57898H15V17.579H17V7.57898Z" fill="black"/>
<path d="M13 14.579H11V17.579H13V14.579Z" fill="black"/>
<path d="M13 10.579H11V12.579H13V10.579Z" fill="black"/>
</g>
<defs>
<clipPath id="clip0_243_5173">
<rect width="24" height="24" fill="white" transform="translate(0 0.578979)"/>
</clipPath>
</defs>
</svg>
