<svg width="30" height="32" viewBox="0 0 30 32" fill="none" xmlns="http://www.w3.org/2000/svg">
<g clip-path="url(#clip0_243_5030)">
<path fill-rule="evenodd" clip-rule="evenodd" d="M-0.0439453 -0.0438232C9.95605 -0.0438232 19.9561 -0.0438232 29.9561 -0.0438232C29.9561 10.4825 29.9561 21.0088 29.9561 31.5351C19.9561 31.5351 9.95605 31.5351 -0.0439453 31.5351C-0.0439453 21.0088 -0.0439453 10.4825 -0.0439453 -0.0438232Z" fill="#FEFEFE"/>
<path fill-rule="evenodd" clip-rule="evenodd" d="M16.0964 5.21931C16.3432 5.1776 16.5186 5.26532 16.6228 5.48246C16.4435 5.39403 16.268 5.30631 16.0964 5.21931Z" fill="#AAAAAA"/>
<path fill-rule="evenodd" clip-rule="evenodd" d="M16.6228 5.48245C16.9261 5.47495 17.1016 5.62115 17.1491 5.92105C16.9715 5.77224 16.796 5.62605 16.6228 5.48245Z" fill="#A7A8AA"/>
<path fill-rule="evenodd" clip-rule="evenodd" d="M14.9562 5.39478C14.861 5.57784 14.7149 5.69479 14.5176 5.74565C14.6128 5.56259 14.7589 5.44564 14.9562 5.39478Z" fill="#4F5051"/>
<path fill-rule="evenodd" clip-rule="evenodd" d="M14.079 6.35962C14.079 6.47658 14.079 6.59354 14.079 6.7105C14.0205 6.88593 13.962 7.06137 13.9035 7.23681C13.8892 7.00108 13.9038 6.76716 13.9474 6.53506C13.9718 6.45472 14.0156 6.39624 14.079 6.35962Z" fill="#B7B8B8"/>
<path fill-rule="evenodd" clip-rule="evenodd" d="M17.3245 6.1842C17.4531 6.2585 17.5262 6.37546 17.5438 6.53508C17.5874 6.76719 17.602 7.00111 17.5876 7.23684C17.5165 6.89202 17.4288 6.54114 17.3245 6.1842Z" fill="#C2C2C3"/>
<path fill-rule="evenodd" clip-rule="evenodd" d="M14.079 6.71057C14.079 6.94449 14.079 7.1784 14.079 7.41233C13.8143 7.4302 13.5511 7.45944 13.2896 7.50005C13.4658 7.36275 13.6705 7.27503 13.9036 7.23689C13.9621 7.06145 14.0205 6.88601 14.079 6.71057Z" fill="#3C3D3D"/>
<path fill-rule="evenodd" clip-rule="evenodd" d="M16.0966 5.21925C16.2681 5.30625 16.4436 5.39397 16.6229 5.48241C16.7961 5.626 16.9716 5.7722 17.1492 5.921C17.2282 5.99034 17.2867 6.07806 17.3246 6.18416C17.4289 6.5411 17.5166 6.89198 17.5878 7.23679C17.7132 7.3278 17.8594 7.38627 18.0264 7.41223C18.1609 7.56531 18.3363 7.65303 18.5527 7.67539C19.9457 8.42534 20.9398 9.53644 21.5351 11.0087C21.5837 11.2935 21.6715 11.5566 21.7983 11.7982C21.8473 13.1458 21.9643 14.4909 22.1492 15.8333C22.1413 16.0659 22.1997 16.2706 22.3246 16.4473C22.2953 16.7097 22.383 16.9143 22.5878 17.0614C22.635 17.2032 22.6642 17.3494 22.6755 17.5C22.6691 17.6339 22.7276 17.7216 22.8509 17.7631C23.0696 18.2593 23.3328 18.7271 23.6404 19.1666C23.8392 19.5119 24.1023 19.8042 24.4299 20.0438C24.613 20.2049 24.73 20.4095 24.7808 20.6578C24.8487 21.1225 24.878 21.5903 24.8685 22.0614C24.8393 22.1783 24.81 22.2953 24.7808 22.4122C24.5468 22.5877 24.3422 22.7923 24.1667 23.0263C23.9739 23.0592 23.7985 23.1177 23.6404 23.2017C21.886 23.2017 20.1316 23.2017 18.3773 23.2017C18.3828 23.7073 18.3244 24.2043 18.2018 24.6929C18.0785 24.7344 18.02 24.8221 18.0264 24.9561C17.903 24.9976 17.8445 25.0853 17.8509 25.2192C17.7276 25.2607 17.6691 25.3485 17.6755 25.4824C17.5035 25.5666 17.3573 25.6835 17.2369 25.8333C17.0462 25.8552 16.9 25.9429 16.7983 26.0964C16.7398 26.0964 16.6814 26.0964 16.6229 26.0964C15.9831 26.0636 15.3398 26.0344 14.693 26.0087C14.4447 25.9579 14.2401 25.841 14.079 25.6578C13.9621 25.4824 13.8159 25.3362 13.6404 25.2192C13.6468 25.0853 13.5883 24.9976 13.465 24.9561C13.1982 24.4095 13.0812 23.8247 13.1141 23.2017C11.2264 23.1394 9.32585 23.0809 7.41234 23.0263C7.37084 22.9029 7.28312 22.8444 7.14918 22.8508C6.50216 22.1614 6.37058 21.372 6.75445 20.4824C6.86619 20.181 7.05625 19.9471 7.32462 19.7807C7.56521 19.6281 7.74065 19.4234 7.85094 19.1666C7.9743 19.1251 8.03278 19.0374 8.02638 18.9035C8.14974 18.862 8.20822 18.7742 8.20182 18.6403C8.35528 18.3039 8.53072 17.9823 8.72813 17.6754C8.8191 17.5499 8.87761 17.4037 8.90357 17.2368C9.20418 16.4142 9.40892 15.5663 9.51761 14.6929C9.58857 14.5357 9.63243 14.3603 9.64918 14.1666C9.69304 13.407 9.70761 12.6467 9.69304 11.8859C9.83085 11.3051 10.0356 10.7496 10.3071 10.2192C10.4304 10.1778 10.4889 10.09 10.4825 9.95609C10.4825 9.89758 10.5117 9.86837 10.5702 9.86837C10.6936 9.82688 10.7521 9.73916 10.7457 9.60521C10.7966 9.40793 10.9135 9.26179 11.0966 9.16662C11.3597 8.96197 11.5937 8.72802 11.7983 8.46486C11.8935 8.2818 12.0396 8.16484 12.2369 8.11398C12.4039 8.09314 12.5209 8.00542 12.5878 7.85083C12.6178 7.7773 12.6762 7.74805 12.7632 7.76311C12.9796 7.74075 13.1551 7.65303 13.2895 7.49995C13.5511 7.45934 13.8143 7.43011 14.079 7.41223C14.079 7.17831 14.079 6.9444 14.079 6.71048C14.079 6.59352 14.079 6.47655 14.079 6.3596C14.1617 6.1052 14.308 5.90053 14.5176 5.74556C14.7149 5.6947 14.861 5.57775 14.9562 5.39469C15.311 5.24755 15.6911 5.18908 16.0966 5.21925Z" fill="#151516"/>
<path fill-rule="evenodd" clip-rule="evenodd" d="M16.4474 6.44739C16.5015 6.4571 16.5453 6.48634 16.5789 6.53511C16.6224 6.70815 16.637 6.88359 16.6228 7.06142C16.0216 7.08984 15.4367 7.06061 14.8684 6.9737C14.8976 6.9737 14.9269 6.9737 14.9561 6.9737C15.4824 6.9737 16.0088 6.9737 16.5351 6.9737C16.5336 6.79258 16.5044 6.61714 16.4474 6.44739Z" fill="#636466"/>
<path fill-rule="evenodd" clip-rule="evenodd" d="M16.0965 6.18423C15.4471 6.07496 15.067 6.33811 14.9561 6.9737C14.9269 6.9737 14.8976 6.9737 14.8684 6.9737C14.963 6.20518 15.3723 5.94203 16.0965 6.18423Z" fill="#9C9D9F"/>
<path fill-rule="evenodd" clip-rule="evenodd" d="M16.0964 6.1842C16.2482 6.23031 16.3652 6.31803 16.4473 6.44736C16.5043 6.61711 16.5335 6.79255 16.535 6.97368C16.0087 6.97368 15.4824 6.97368 14.9561 6.97368C15.0669 6.33809 15.447 6.07493 16.0964 6.1842Z" fill="#F4F5F5"/>
<path fill-rule="evenodd" clip-rule="evenodd" d="M18.0264 7.41223C18.2428 7.43459 18.4182 7.52231 18.5527 7.67539C18.3363 7.65303 18.1608 7.56531 18.0264 7.41223Z" fill="#767676"/>
<path fill-rule="evenodd" clip-rule="evenodd" d="M13.2895 7.5C13.155 7.65308 12.9796 7.7408 12.7632 7.76316C12.8977 7.61008 13.0731 7.52236 13.2895 7.5Z" fill="#636466"/>
<path fill-rule="evenodd" clip-rule="evenodd" d="M16.4474 7.93859C15.6769 7.90212 14.9167 7.96061 14.1667 8.11403C14.3226 8.01749 14.4981 7.94439 14.6931 7.89473C15.2936 7.82275 15.8784 7.83736 16.4474 7.93859Z" fill="#ACACAD"/>
<path fill-rule="evenodd" clip-rule="evenodd" d="M12.5877 7.85083C12.5209 8.00543 12.4038 8.09315 12.2368 8.11399C12.3037 7.95939 12.4207 7.87167 12.5877 7.85083Z" fill="#606060"/>
<path fill-rule="evenodd" clip-rule="evenodd" d="M16.4473 7.9386C17.6913 8.0928 18.744 8.61911 19.6052 9.51755C19.5988 9.6515 19.6573 9.73922 19.7806 9.78071C19.9602 9.96053 20.1064 10.1652 20.2192 10.3947C20.2128 10.5287 20.2713 10.6164 20.3947 10.6579C20.5575 10.926 20.6744 11.2184 20.7455 11.5351C20.7244 11.7454 20.7829 11.9209 20.921 12.0614C20.99 13.0542 21.0485 14.0484 21.0964 15.0439C21.0885 15.2765 21.1469 15.4811 21.2719 15.6579C21.2719 15.7164 21.2719 15.7748 21.2719 15.8333C21.264 16.066 21.3224 16.2706 21.4473 16.4474C21.5237 16.6765 21.5821 16.9104 21.6227 17.1491C21.6229 17.4706 21.7398 17.7338 21.9736 17.9386C22.2087 18.4088 22.4426 18.8766 22.6754 19.3421C22.7262 19.5394 22.8432 19.6855 23.0262 19.7807C23.114 19.8099 23.1725 19.8684 23.2017 19.9561C23.2309 20.1608 23.3479 20.2778 23.5526 20.307C23.5462 20.441 23.6047 20.5287 23.728 20.5702C23.7216 20.7041 23.7801 20.7919 23.9034 20.8333C23.9615 21.1812 23.9907 21.5321 23.9912 21.886C23.912 22.0475 23.795 22.1644 23.6403 22.2369C18.377 22.2515 13.1139 22.2369 7.85081 22.193C7.78556 22.1019 7.69784 22.058 7.58765 22.0614C7.51412 22.0314 7.48488 21.973 7.49993 21.886C7.50032 21.5321 7.52957 21.1812 7.58765 20.8333C7.71101 20.7919 7.76949 20.7041 7.76309 20.5702C7.88645 20.5287 7.94493 20.441 7.93853 20.307C7.99701 20.307 8.02625 20.2778 8.02625 20.2193C8.38282 20.0673 8.61674 19.8041 8.728 19.4298C8.85133 19.3883 8.90984 19.3006 8.90344 19.1667C8.99853 18.947 9.11546 18.7424 9.25432 18.5526C9.39239 18.5143 9.49475 18.4266 9.56133 18.2895C9.66519 17.9074 9.76756 17.5273 9.86835 17.1491C9.92686 16.9152 9.98528 16.6813 10.0438 16.4474C10.2113 16.1884 10.2991 15.896 10.3069 15.5702C10.4264 14.4027 10.5141 13.2331 10.5701 12.0614C10.7082 11.9209 10.7667 11.7454 10.7455 11.5351C10.8836 11.3946 10.9421 11.2191 10.921 11.0088C10.9059 10.9218 10.9352 10.8633 11.0087 10.8333C11.1468 10.795 11.2491 10.7073 11.3157 10.5702C11.4953 10.3363 11.6269 10.0732 11.7105 9.78071C11.7419 9.61659 11.8297 9.48501 11.9736 9.38597C12.2277 9.17457 12.4909 8.98448 12.7631 8.8158C12.9022 8.73569 13.0338 8.73569 13.1578 8.8158C13.2578 8.65973 13.3602 8.51353 13.4648 8.3772C13.7348 8.3667 13.9688 8.27898 14.1666 8.11404C14.9165 7.96062 15.6768 7.90214 16.4473 7.9386Z" fill="#FEFEFE"/>
<path fill-rule="evenodd" clip-rule="evenodd" d="M14.1666 8.11401C13.9688 8.27895 13.7348 8.36667 13.4648 8.37717C13.6627 8.21223 13.8966 8.12451 14.1666 8.11401Z" fill="#B7B8BA"/>
<path fill-rule="evenodd" clip-rule="evenodd" d="M13.4649 8.3772C13.3603 8.51352 13.2579 8.65972 13.1579 8.81579C13.0339 8.73569 12.9023 8.73569 12.7632 8.81579C12.9372 8.58212 13.1712 8.43593 13.4649 8.3772Z" fill="#CFCFCF"/>
<path fill-rule="evenodd" clip-rule="evenodd" d="M11.7982 8.46497C11.5935 8.72812 11.3596 8.96207 11.0964 9.16672C11.2427 8.84505 11.4765 8.61117 11.7982 8.46497Z" fill="#555658"/>
<path fill-rule="evenodd" clip-rule="evenodd" d="M19.6052 9.51758C19.7285 9.55907 19.7871 9.64679 19.7806 9.78074C19.6573 9.73924 19.5988 9.65153 19.6052 9.51758Z" fill="#939496"/>
<path fill-rule="evenodd" clip-rule="evenodd" d="M10.7455 9.60522C10.7519 9.73917 10.6934 9.82689 10.5701 9.86838C10.5637 9.73444 10.6222 9.64672 10.7455 9.60522Z" fill="#535354"/>
<path fill-rule="evenodd" clip-rule="evenodd" d="M10.4826 9.95618C10.489 10.0901 10.4304 10.1778 10.3071 10.2193C10.3007 10.0854 10.3592 9.99767 10.4826 9.95618Z" fill="#8B8C8E"/>
<path fill-rule="evenodd" clip-rule="evenodd" d="M11.7105 9.78076C11.6269 10.0732 11.4954 10.3364 11.3158 10.5702C11.2492 10.7073 11.1469 10.7951 11.0088 10.8334C11.1402 10.4104 11.3741 10.0595 11.7105 9.78076Z" fill="#C6C6C7"/>
<path fill-rule="evenodd" clip-rule="evenodd" d="M20.2192 10.3948C20.3426 10.4363 20.4011 10.524 20.3947 10.6579C20.2713 10.6164 20.2128 10.5287 20.2192 10.3948Z" fill="#A1A3A2"/>
<path fill-rule="evenodd" clip-rule="evenodd" d="M21.5352 11.0088C21.7153 11.2288 21.8031 11.4919 21.7983 11.7983C21.6715 11.5567 21.5838 11.2935 21.5352 11.0088Z" fill="#C3C3C3"/>
<path fill-rule="evenodd" clip-rule="evenodd" d="M10.9211 11.0088C10.9422 11.2191 10.8837 11.3946 10.7457 11.5351C10.7245 11.3248 10.783 11.1493 10.9211 11.0088Z" fill="#A5A5A7"/>
<path fill-rule="evenodd" clip-rule="evenodd" d="M10.7456 11.535C10.7667 11.7454 10.7082 11.9208 10.5701 12.0613C10.549 11.851 10.6075 11.6756 10.7456 11.535Z" fill="#959597"/>
<path fill-rule="evenodd" clip-rule="evenodd" d="M20.7457 11.535C20.8837 11.6756 20.9422 11.851 20.9211 12.0613C20.783 11.9208 20.7245 11.7454 20.7457 11.535Z" fill="#959595"/>
<path fill-rule="evenodd" clip-rule="evenodd" d="M9.69302 11.886C9.70758 12.6468 9.69302 13.407 9.64916 14.1667C9.6324 14.3604 9.58854 14.5358 9.51758 14.693C9.55688 13.7428 9.61539 12.8071 9.69302 11.886Z" fill="#565758"/>
<path fill-rule="evenodd" clip-rule="evenodd" d="M21.0964 15.0438C21.2423 15.2138 21.3007 15.4186 21.2718 15.6579C21.1469 15.4811 21.0885 15.2765 21.0964 15.0438Z" fill="#808183"/>
<path fill-rule="evenodd" clip-rule="evenodd" d="M10.3071 15.5702C10.2992 15.896 10.2115 16.1884 10.0439 16.4474C10.0635 16.1262 10.1512 15.8338 10.3071 15.5702Z" fill="#9FA0A2"/>
<path fill-rule="evenodd" clip-rule="evenodd" d="M21.2719 15.8334C21.3969 16.0101 21.4553 16.2148 21.4474 16.4474C21.3225 16.2707 21.2641 16.066 21.2719 15.8334Z" fill="#858688"/>
<path fill-rule="evenodd" clip-rule="evenodd" d="M22.1491 15.8334C22.2741 16.0101 22.3325 16.2148 22.3246 16.4474C22.1997 16.2707 22.1412 16.066 22.1491 15.8334Z" fill="#565759"/>
<path fill-rule="evenodd" clip-rule="evenodd" d="M22.3246 16.4474C22.4619 16.6236 22.5496 16.8284 22.5878 17.0614C22.383 16.9144 22.2953 16.7098 22.3246 16.4474Z" fill="#6A6A6C"/>
<path fill-rule="evenodd" clip-rule="evenodd" d="M8.90351 17.2368C8.87754 17.4037 8.81903 17.55 8.72807 17.6754C8.69474 17.4826 8.75322 17.3364 8.90351 17.2368Z" fill="#87888A"/>
<path fill-rule="evenodd" clip-rule="evenodd" d="M21.6228 17.1492C21.8063 17.3762 21.9232 17.6393 21.9737 17.9386C21.7399 17.7338 21.623 17.4707 21.6228 17.1492Z" fill="#9D9D9E"/>
<path fill-rule="evenodd" clip-rule="evenodd" d="M22.6755 17.5C22.7989 17.5415 22.8574 17.6292 22.851 17.7632C22.7276 17.7217 22.6691 17.6339 22.6755 17.5Z" fill="#767678"/>
<path fill-rule="evenodd" clip-rule="evenodd" d="M9.86843 17.1492C9.76764 17.5273 9.66527 17.9074 9.56141 18.2895C9.49483 18.4266 9.39246 18.5143 9.25439 18.5527C9.42659 18.0636 9.63124 17.5957 9.86843 17.1492Z" fill="#C0C0C1"/>
<path fill-rule="evenodd" clip-rule="evenodd" d="M8.20179 18.6404C8.20819 18.7743 8.14971 18.862 8.02635 18.9035C8.01995 18.7696 8.07843 18.6819 8.20179 18.6404Z" fill="#666666"/>
<path fill-rule="evenodd" clip-rule="evenodd" d="M8.02625 18.9036C8.03266 19.0375 7.97418 19.1252 7.85082 19.1667C7.84441 19.0328 7.90289 18.9451 8.02625 18.9036Z" fill="#595959"/>
<path fill-rule="evenodd" clip-rule="evenodd" d="M23.6404 19.1666C23.9679 19.4062 24.2311 19.6986 24.4299 20.0438C24.1023 19.8043 23.8392 19.5119 23.6404 19.1666Z" fill="#595A5C"/>
<path fill-rule="evenodd" clip-rule="evenodd" d="M8.90345 19.1666C8.90985 19.3006 8.85135 19.3883 8.72801 19.4298C8.72161 19.2958 8.78012 19.2081 8.90345 19.1666Z" fill="#969799"/>
<path fill-rule="evenodd" clip-rule="evenodd" d="M22.6755 19.3422C22.8586 19.4373 22.9755 19.5835 23.0264 19.7808C22.8433 19.6856 22.7264 19.5394 22.6755 19.3422Z" fill="#ACADAC"/>
<path fill-rule="evenodd" clip-rule="evenodd" d="M7.85078 19.1666C7.74049 19.4234 7.56505 19.6281 7.32446 19.7807C7.43475 19.5239 7.61019 19.3192 7.85078 19.1666Z" fill="#4F5050"/>
<path fill-rule="evenodd" clip-rule="evenodd" d="M8.72812 19.4298C8.61686 19.8041 8.38294 20.0673 8.02637 20.2193C8.26281 19.9538 8.49673 19.6907 8.72812 19.4298Z" fill="#AEAEB0"/>
<path fill-rule="evenodd" clip-rule="evenodd" d="M23.2017 19.9562C23.3479 20.0439 23.4648 20.1608 23.5525 20.3071C23.3479 20.2778 23.2309 20.1608 23.2017 19.9562Z" fill="#989898"/>
<path fill-rule="evenodd" clip-rule="evenodd" d="M7.93861 20.307C7.94501 20.441 7.88653 20.5287 7.76317 20.5702C7.75677 20.4362 7.81525 20.3485 7.93861 20.307Z" fill="#969799"/>
<path fill-rule="evenodd" clip-rule="evenodd" d="M23.5527 20.307C23.6761 20.3485 23.7346 20.4362 23.7282 20.5702C23.6048 20.5287 23.5463 20.441 23.5527 20.307Z" fill="#989898"/>
<path fill-rule="evenodd" clip-rule="evenodd" d="M7.76307 20.5702C7.76947 20.7041 7.71099 20.7919 7.58763 20.8333C7.58123 20.6994 7.63971 20.6117 7.76307 20.5702Z" fill="#A5A6A8"/>
<path fill-rule="evenodd" clip-rule="evenodd" d="M23.728 20.5702C23.8513 20.6117 23.9099 20.6994 23.9035 20.8333C23.7801 20.7919 23.7216 20.7041 23.728 20.5702Z" fill="#A8A9AA"/>
<path fill-rule="evenodd" clip-rule="evenodd" d="M7.58772 20.8334C7.52964 21.1813 7.5004 21.5321 7.5 21.886C7.44212 21.7576 7.41288 21.6114 7.41228 21.4474C7.39615 21.2101 7.45463 21.0055 7.58772 20.8334Z" fill="#A7A8AA"/>
<path fill-rule="evenodd" clip-rule="evenodd" d="M23.9036 20.8334C24.0366 21.0055 24.0951 21.2101 24.079 21.4474C24.0784 21.6114 24.0492 21.7576 23.9913 21.886C23.9908 21.5321 23.9616 21.1813 23.9036 20.8334Z" fill="#A6A7A7"/>
<path fill-rule="evenodd" clip-rule="evenodd" d="M24.7808 20.6578C24.8441 20.6945 24.888 20.7529 24.9123 20.8333C24.9838 21.2589 24.9692 21.6683 24.8685 22.0613C24.878 21.5903 24.8487 21.1225 24.7808 20.6578Z" fill="#69696B"/>
<path fill-rule="evenodd" clip-rule="evenodd" d="M7.58765 22.0615C7.69784 22.058 7.78556 22.1019 7.8508 22.193C13.1139 22.2369 18.377 22.2516 23.6403 22.2369C18.3626 22.3391 13.0702 22.3537 7.76309 22.2808C7.68585 22.2187 7.62737 22.1455 7.58765 22.0615Z" fill="#BFBFBF"/>
<path fill-rule="evenodd" clip-rule="evenodd" d="M24.7808 22.4122C24.6639 22.7046 24.4591 22.9093 24.1667 23.0263C24.3422 22.7923 24.5468 22.5877 24.7808 22.4122Z" fill="#AAAAAA"/>
<path fill-rule="evenodd" clip-rule="evenodd" d="M7.14917 22.8509C7.28311 22.8445 7.37083 22.903 7.41233 23.0264C7.27839 23.0328 7.19067 22.9743 7.14917 22.8509Z" fill="#616264"/>
<path fill-rule="evenodd" clip-rule="evenodd" d="M7.41235 23.0264C9.32586 23.081 11.2264 23.1395 13.1141 23.2018C11.2388 23.2291 9.36744 23.1999 7.50007 23.1141C7.44159 23.1141 7.41235 23.0849 7.41235 23.0264Z" fill="#3B3B3B"/>
<path fill-rule="evenodd" clip-rule="evenodd" d="M7.5 23.114C9.36737 23.1998 11.2387 23.229 13.114 23.2017C13.0811 23.8247 13.1982 24.4095 13.4649 24.9561C13.3107 24.8122 13.1791 24.6367 13.0702 24.4298C13.0264 24.0508 13.0118 23.6707 13.0263 23.2895C11.2132 23.3041 9.40035 23.2895 7.58772 23.2456C7.53895 23.212 7.50971 23.1681 7.5 23.114Z" fill="#C7C7C7"/>
<path fill-rule="evenodd" clip-rule="evenodd" d="M17.4122 24.1667C17.4122 23.8743 17.4122 23.5819 17.4122 23.2895C16.3011 23.2895 15.19 23.2895 14.0789 23.2895C14.0789 23.5527 14.0789 23.8158 14.0789 24.079C13.993 23.8049 13.9637 23.5125 13.9912 23.2018C15.1607 23.2018 16.3304 23.2018 17.4999 23.2018C17.5276 23.5413 17.4984 23.863 17.4122 24.1667Z" fill="#B7B8B8"/>
<path fill-rule="evenodd" clip-rule="evenodd" d="M23.6403 23.2018C21.9303 23.2892 20.2052 23.3184 18.4648 23.2895C18.4794 23.6707 18.4647 24.0508 18.421 24.4299C18.3879 24.5563 18.3148 24.6441 18.2017 24.693C18.3242 24.2044 18.3826 23.7074 18.3771 23.2018C20.1315 23.2018 21.8859 23.2018 23.6403 23.2018Z" fill="#C5C5C6"/>
<path fill-rule="evenodd" clip-rule="evenodd" d="M17.4122 24.1666C17.3777 24.3231 17.3193 24.4693 17.2368 24.6052C17.0613 24.7221 16.9151 24.8684 16.7982 25.0438C16.6642 25.0374 16.5765 25.0959 16.535 25.2193C16.3932 25.2664 16.2469 25.2957 16.0964 25.307C15.7132 25.3099 15.3331 25.2807 14.9561 25.2193C14.4734 24.9849 14.1811 24.6048 14.0789 24.0789C14.0789 23.8157 14.0789 23.5526 14.0789 23.2894C15.19 23.2894 16.3011 23.2894 17.4122 23.2894C17.4122 23.5818 17.4122 23.8743 17.4122 24.1666Z" fill="#FAFAFB"/>
<path fill-rule="evenodd" clip-rule="evenodd" d="M18.2018 24.693C18.2082 24.8269 18.1497 24.9147 18.0264 24.9562C18.0199 24.8222 18.0785 24.7345 18.2018 24.693Z" fill="#9B9B9D"/>
<path fill-rule="evenodd" clip-rule="evenodd" d="M17.2369 24.6052C17.1784 24.8392 17.0323 24.9853 16.7983 25.0438C16.9153 24.8684 17.0615 24.7222 17.2369 24.6052Z" fill="#595C5B"/>
<path fill-rule="evenodd" clip-rule="evenodd" d="M13.4648 24.9562C13.5882 24.9977 13.6467 25.0854 13.6403 25.2193C13.5169 25.1778 13.4584 25.0901 13.4648 24.9562Z" fill="#828385"/>
<path fill-rule="evenodd" clip-rule="evenodd" d="M16.7983 25.0438C16.7568 25.1671 16.6691 25.2257 16.5352 25.2192C16.5766 25.0959 16.6644 25.0374 16.7983 25.0438Z" fill="#757575"/>
<path fill-rule="evenodd" clip-rule="evenodd" d="M18.0263 24.9562C18.0327 25.0901 17.9741 25.1778 17.8508 25.2193C17.8444 25.0854 17.9029 24.9977 18.0263 24.9562Z" fill="#858587"/>
<path fill-rule="evenodd" clip-rule="evenodd" d="M13.6404 25.2192C13.8158 25.3362 13.962 25.4824 14.079 25.6578C13.845 25.5993 13.6989 25.4532 13.6404 25.2192Z" fill="#8E8F8F"/>
<path fill-rule="evenodd" clip-rule="evenodd" d="M14.9561 25.2192C15.3331 25.2806 15.7132 25.3099 16.0964 25.307C15.9531 25.3649 15.7923 25.3942 15.6139 25.3947C15.3625 25.4122 15.1432 25.3537 14.9561 25.2192Z" fill="#9B9C9E"/>
<path fill-rule="evenodd" clip-rule="evenodd" d="M17.851 25.2192C17.8574 25.3532 17.7989 25.4409 17.6755 25.4824C17.6691 25.3484 17.7276 25.2607 17.851 25.2192Z" fill="#9A9A9A"/>
<path fill-rule="evenodd" clip-rule="evenodd" d="M14.6929 26.0088C15.3396 26.0345 15.983 26.0637 16.6227 26.0965C16.1493 26.2669 15.6522 26.3108 15.1315 26.2281C14.9723 26.1617 14.8261 26.0886 14.6929 26.0088Z" fill="#2A2B2C"/>
<path fill-rule="evenodd" clip-rule="evenodd" d="M17.2369 25.8334C17.1504 26.0007 17.0043 26.0885 16.7983 26.0965C16.9 25.943 17.0462 25.8553 17.2369 25.8334Z" fill="#B6B6B6"/>
</g>
<defs>
<clipPath id="clip0_243_5030">
<rect width="30" height="31.5789" fill="white"/>
</clipPath>
</defs>
</svg>
