<svg width="24" height="19" viewBox="0 0 24 19" fill="none" xmlns="http://www.w3.org/2000/svg">
<path d="M14.4 2.97898V0.578979H24V2.97898H14.4ZM14.4 7.77898V5.37898H24V7.77898H14.4ZM14.4 12.579V10.179H24V12.579H14.4ZM7.2 11.379C6.2 11.379 5.35 11.029 4.65 10.329C3.95 9.62898 3.6 8.77898 3.6 7.77898C3.6 6.77898 3.95 5.92898 4.65 5.22898C5.35 4.52898 6.2 4.17898 7.2 4.17898C8.2 4.17898 9.05 4.52898 9.75 5.22898C10.45 5.92898 10.8 6.77898 10.8 7.77898C10.8 8.77898 10.45 9.62898 9.75 10.329C9.05 11.029 8.2 11.379 7.2 11.379ZM0 18.579V16.299C0 15.879 0.1 15.479 0.3 15.099C0.5 14.719 0.78 14.419 1.14 14.199C2.04 13.659 2.995 13.254 4.005 12.984C5.015 12.714 6.08 12.579 7.2 12.579C8.32 12.579 9.385 12.714 10.395 12.984C11.405 13.254 12.36 13.659 13.26 14.199C13.62 14.419 13.9 14.719 14.1 15.099C14.3 15.479 14.4 15.879 14.4 16.299V18.579H0ZM2.58 16.179H11.82C11.12 15.779 10.38 15.479 9.6 15.279C8.82 15.079 8.02 14.979 7.2 14.979C6.38 14.979 5.58 15.079 4.8 15.279C4.02 15.479 3.28 15.779 2.58 16.179ZM7.2 8.97898C7.54 8.97898 7.825 8.86398 8.055 8.63398C8.285 8.40398 8.4 8.11898 8.4 7.77898C8.4 7.43898 8.285 7.15398 8.055 6.92398C7.825 6.69398 7.54 6.57898 7.2 6.57898C6.86 6.57898 6.575 6.69398 6.345 6.92398C6.115 7.15398 6 7.43898 6 7.77898C6 8.11898 6.115 8.40398 6.345 8.63398C6.575 8.86398 6.86 8.97898 7.2 8.97898Z" fill="black"/>
</svg>
