<svg width="26" height="26" viewBox="0 0 26 26" fill="none" xmlns="http://www.w3.org/2000/svg">
<g clip-path="url(#clip0_243_5015)">
<path fill-rule="evenodd" clip-rule="evenodd" d="M-0.0578613 -0.0577393C8.60881 -0.0577393 17.2755 -0.0577393 25.9421 -0.0577393C25.9421 4.79559 25.9421 9.64893 25.9421 14.5023C25.8593 14.2188 25.7244 13.9491 25.5377 13.6934C22.2059 10.3615 18.874 7.02966 15.5421 3.69782C14.7567 3.09555 13.8707 2.72963 12.8844 2.60004C11.9033 2.46635 10.9018 2.44709 9.87992 2.54226C10.0422 2.68892 10.2348 2.7467 10.4577 2.71559C11.032 2.82909 11.5713 3.04095 12.0755 3.35115C15.5136 6.75061 18.961 10.1595 22.4177 13.5778C22.9932 14.259 23.0702 14.9909 22.6488 15.7734C20.4532 17.9689 18.2577 20.1645 16.0621 22.36C16.1717 22.7415 16.4221 23.0304 16.8132 23.2267C17.4839 23.3681 18.1003 23.2526 18.6621 22.88C20.9155 20.6267 23.1688 18.3734 25.4221 16.12C25.6296 15.8197 25.8029 15.5115 25.9421 15.1956C25.9421 18.7778 25.9421 22.36 25.9421 25.9423C17.2755 25.9423 8.60881 25.9423 -0.0578613 25.9423C-0.0578613 20.7423 -0.0578613 15.5423 -0.0578613 10.3423C0.13734 11.2527 0.503266 12.1001 1.03992 12.8845C4.37176 16.2163 7.70362 19.5482 11.0355 22.88C11.736 23.3769 12.4678 23.4155 13.231 22.9956C15.5999 20.6267 17.9688 18.2578 20.3377 15.8889C20.7228 15.1956 20.7228 14.5023 20.3377 13.8089C16.8903 10.3615 13.4428 6.91411 9.99547 3.46671C9.35429 3.06931 8.66096 2.79968 7.91547 2.65782C5.64288 2.58078 3.37029 2.58078 1.09769 2.65782C0.568019 2.92986 0.182834 3.3343 -0.0578613 3.87115C-0.0578613 2.56152 -0.0578613 1.25189 -0.0578613 -0.0577393Z" fill="#FDFDFD"/>
<path fill-rule="evenodd" clip-rule="evenodd" d="M12.8843 2.60005C12.0538 2.56255 11.245 2.60107 10.4577 2.71561C10.2348 2.74672 10.0422 2.68894 9.87988 2.54227C10.9018 2.4471 11.9033 2.46637 12.8843 2.60005Z" fill="#C9C9C9"/>
<path fill-rule="evenodd" clip-rule="evenodd" d="M-0.0578613 10.3422C-0.0578613 8.18516 -0.0578613 6.02813 -0.0578613 3.87109C0.182834 3.33424 0.568019 2.9298 1.09769 2.65776C3.37029 2.58072 5.64288 2.58072 7.91547 2.65776C8.66096 2.79962 9.35429 3.06925 9.99547 3.46665C13.4428 6.91405 16.8903 10.3615 20.3377 13.8089C20.7228 14.5022 20.7228 15.1955 20.3377 15.8889C17.9688 18.2578 15.5999 20.6266 13.231 22.9955C12.4678 23.4155 11.736 23.3769 11.0355 22.88C7.70362 19.5482 4.37176 16.2162 1.03992 12.8844C0.503266 12.1 0.13734 11.2526 -0.0578613 10.3422Z" fill="black"/>
<path fill-rule="evenodd" clip-rule="evenodd" d="M10.4578 2.71561C11.2451 2.60107 12.0539 2.56256 12.8844 2.60006C13.8708 2.72965 14.7568 3.09557 15.5422 3.69783C18.874 7.02968 22.2059 10.3615 25.5378 13.6934C25.7245 13.9491 25.8594 14.2188 25.9422 14.5023C25.9422 14.7334 25.9422 14.9645 25.9422 15.1956C25.803 15.5115 25.6296 15.8197 25.4222 16.1201C23.1689 18.3734 20.9155 20.6267 18.6622 22.8801C18.1004 23.2526 17.484 23.3682 16.8133 23.2267C16.4222 23.0304 16.1718 22.7415 16.0622 22.3601C18.2578 20.1645 20.4533 17.9689 22.6489 15.7734C23.0703 14.991 22.9932 14.259 22.4178 13.5778C18.961 10.1595 15.5137 6.75063 12.0755 3.35117C11.5714 3.04097 11.0321 2.82911 10.4578 2.71561Z" fill="#060606"/>
<path fill-rule="evenodd" clip-rule="evenodd" d="M3.98671 5.14221C5.6872 5.28086 6.32276 6.16679 5.89338 7.79999C4.97231 8.9295 3.97082 9.00654 2.88893 8.0311C2.22829 6.6586 2.59422 5.69563 3.98671 5.14221Z" fill="#F9F9F9"/>
</g>
<defs>
<clipPath id="clip0_243_5015">
<rect width="26" height="26" fill="white"/>
</clipPath>
</defs>
</svg>
