<svg width="512" height="512" viewBox="0 0 512 512" fill="none" xmlns="http://www.w3.org/2000/svg">
<rect width="512" height="512" rx="100" fill="url(#paint0_radial_1455_18555)"/>
<g filter="url(#filter0_b_1455_18555)">
<rect width="512" height="512" rx="100" fill="black" fill-opacity="0.1"/>
</g>
<path d="M254 75H322.715C331.644 75 336.096 85.813 329.756 92.1005L166.5 254H254L344.085 165.852C345.954 164.024 348.464 163 351.079 163H412.232C421.088 163 425.573 173.661 419.381 179.992L347 254H411.858C420.767 254 425.229 264.771 418.929 271.071L316 374H408.096C417.482 374 421.697 385.762 414.448 391.724L362.768 434.224C360.978 435.695 358.733 436.5 356.416 436.5H258H190.455C181.573 436.5 177.099 425.783 183.345 419.468L347 254H254L169.468 345.294C167.576 347.338 164.916 348.5 162.131 348.5H99.4228C90.6176 348.5 86.1104 337.943 92.2005 331.583L166.5 254H100.287C91.3575 254 86.9051 243.187 93.2458 236.899L195 136H103.853C94.4731 136 90.2544 124.25 97.4919 118.284L147.23 77.2837C149.021 75.8074 151.269 75 153.59 75H254Z" fill="white"/>
<defs>
<filter id="filter0_b_1455_18555" x="-10" y="-10" width="532" height="532" filterUnits="userSpaceOnUse" color-interpolation-filters="sRGB">
<feFlood flood-opacity="0" result="BackgroundImageFix"/>
<feGaussianBlur in="BackgroundImageFix" stdDeviation="5"/>
<feComposite in2="SourceAlpha" operator="in" result="effect1_backgroundBlur_1455_18555"/>
<feBlend mode="normal" in="SourceGraphic" in2="effect1_backgroundBlur_1455_18555" result="shape"/>
</filter>
<radialGradient id="paint0_radial_1455_18555" cx="0" cy="0" r="1" gradientUnits="userSpaceOnUse" gradientTransform="translate(256 256) rotate(143.86) scale(863.07 1423.35)">
<stop offset="0.209553" stop-color="#1C1714"/>
<stop offset="0.530412" stop-color="#B780FF"/>
</radialGradient>
</defs>
</svg>
